<svg xmlns="http://www.w3.org/2000/svg" width="1em" height="1.0899em" viewBox="0 0 16 14.679" fill="#bb914a">
    <defs>
        <clipPath id="a">
            <path d="M1784.791-3066.541v8.429a1.489 1.489 0 0 0 1.5 1.472 1.489 1.489 0 0 0 1.5-1.472v-8.429a1.49 1.49 0 0 0-1.5-1.477 1.49 1.49 0 0 0-1.5 1.477" transform="translate(-1784.791 3068.018)"></path>
        </clipPath>
        <clipPath id="b">
            <path d="M1765.351-3052.024v8.426a1.489 1.489 0 0 0 1.5 1.477 1.49 1.49 0 0 0 1.5-1.477v-8.426a1.489 1.489 0 0 0-1.5-1.475 1.488 1.488 0 0 0-1.5 1.475" transform="translate(-1765.351 3053.5)"></path>
        </clipPath>
        <clipPath id="c">
            <path d="M1746.283-3066.541v8.429a1.49 1.49 0 0 0 1.506 1.472 1.492 1.492 0 0 0 1.5-1.472v-8.429a1.493 1.493 0 0 0-1.5-1.477 1.491 1.491 0 0 0-1.506 1.477" transform="translate(-1746.283 3068.018)"></path>
        </clipPath>
        <clipPath id="d">
            <path d="M1727.63-3045.151v5.387a1.486 1.486 0 0 0 1.5 1.475 1.487 1.487 0 0 0 1.5-1.475v-5.387a1.488 1.488 0 0 0-1.5-1.476 1.488 1.488 0 0 0-1.5 1.476" transform="translate(-1727.63 3046.627)"></path>
        </clipPath>
    </defs>
    <path d="M12.997 1.477v8.429a1.489 1.489 0 0 0 1.5 1.472 1.489 1.489 0 0 0 1.5-1.472V1.477A1.49 1.49 0 0 0 14.497 0a1.49 1.49 0 0 0-1.5 1.477"></path>
    <path transform="translate(12.997)" d="M0 0h3.003v11.378H0z" style="clip-path:url(#a)"></path>
    <path d="M8.577 4.777v8.426a1.489 1.489 0 0 0 1.5 1.477 1.49 1.49 0 0 0 1.5-1.477V4.777a1.489 1.489 0 0 0-1.5-1.475 1.488 1.488 0 0 0-1.5 1.475"></path>
    <path d="M0 0h3.003v11.378H0z" style="clip-path:url(#b)" transform="translate(8.577 3.301)"></path>
    <path d="M4.241 1.477v8.429a1.49 1.49 0 0 0 1.506 1.472 1.492 1.492 0 0 0 1.5-1.472V1.477A1.493 1.493 0 0 0 5.747 0a1.491 1.491 0 0 0-1.506 1.477"></path>
    <path transform="translate(4.241)" d="M0 0h3.009v11.378H0z" style="clip-path:url(#c)"></path>
    <path d="M0 6.34v5.387a1.486 1.486 0 0 0 1.5 1.475A1.487 1.487 0 0 0 3 11.727V6.34a1.488 1.488 0 0 0-1.5-1.476A1.488 1.488 0 0 0 0 6.34"></path>
    <path transform="translate(0 4.864)" d="M0 0h3.003v8.339H0z" style="clip-path:url(#d)"></path>
</svg>
