<svg xmlns="http://www.w3.org/2000/svg" width="1920" height="733.658" viewBox="0 0 1920 733.658">
    <g id="bg-candles" transform="translate(-34.074 -1899.16)" opacity="0.302"
       style="mix-blend-mode: normal;isolation: isolate">
        <rect id="Rectangle_11295" data-name="Rectangle 11295" width="11.437" height="107.914" rx="1.691"
              transform="translate(34.074 2450.384)" fill="#121e5a"/>
        <path id="Path_3948" data-name="Path 3948"
              d="M58.682,868.191h0a.5.5,0,0,1-.5-.492V721a.494.494,0,0,1,.5-.49h0a.493.493,0,0,1,.5.49V867.7A.5.5,0,0,1,58.682,868.191Z"
              transform="translate(-18.89 1709.989)" fill="#121e5a"/>
        <rect id="Rectangle_11297" data-name="Rectangle 11297" width="11.437" height="85.39" rx="1.691"
              transform="translate(68.661 2428.311)" fill="#121e5a"/>
        <path id="Path_3950" data-name="Path 3950"
              d="M92.065,824.133h0a.493.493,0,0,1-.5-.49V699.472a.494.494,0,0,1,.5-.491h0a.494.494,0,0,1,.5.491V823.643A.493.493,0,0,1,92.065,824.133Z"
              transform="translate(-17.686 1709.448)" fill="#121e5a"/>
        <rect id="Rectangle_11298" data-name="Rectangle 11298" width="11.437" height="85.39" rx="1.691"
              transform="translate(103.247 2476.262)" fill="#121e5a"/>
        <path id="Path_3951" data-name="Path 3951"
              d="M125.447,870.909h0a.493.493,0,0,1-.5-.49V746.248a.494.494,0,0,1,.5-.491h0a.5.5,0,0,1,.5.491V870.419A.494.494,0,0,1,125.447,870.909Z"
              transform="translate(-16.482 1710.623)" fill="#121e5a"/>
        <rect id="Rectangle_11299" data-name="Rectangle 11299" width="11.437" height="62.866" rx="1.691"
              transform="translate(137.833 2463.549)" fill="#121e5a"/>
        <path id="Path_3952" data-name="Path 3952"
              d="M158.83,835.984h0a.494.494,0,0,1-.5-.491V733.846a.494.494,0,0,1,.5-.492h0a.5.5,0,0,1,.5.492V835.493A.494.494,0,0,1,158.83,835.984Z"
              transform="translate(-15.279 1710.312)" fill="#121e5a"/>
        <rect id="Rectangle_11300" data-name="Rectangle 11300" width="11.437" height="107.914" rx="1.691"
              transform="translate(172.42 2436.42)" fill="#121e5a"/>
        <path id="Path_3953" data-name="Path 3953"
              d="M192.213,855.671h0a.494.494,0,0,1-.5-.49V663.438a.494.494,0,0,1,.5-.491h0a.494.494,0,0,1,.5.491V855.181A.494.494,0,0,1,192.213,855.671Z"
              transform="translate(-14.075 1708.543)" fill="#121e5a"/>
        <rect id="Rectangle_11301" data-name="Rectangle 11301" width="11.437" height="62.866" rx="1.691"
              transform="translate(207.006 2509.397)" fill="#121e5a"/>
        <path id="Path_3954" data-name="Path 3954"
              d="M225.6,880.709h0a.493.493,0,0,1-.5-.491h0V778.571a.493.493,0,0,1,.5-.491h0a.493.493,0,0,1,.5.49h0V880.217a.493.493,0,0,1-.494.492Z"
              transform="translate(-12.871 1711.435)" fill="#121e5a"/>
        <rect id="Rectangle_11302" data-name="Rectangle 11302" width="11.437" height="62.866" rx="1.691"
              transform="translate(241.593 2505.021)" fill="#121e5a"/>
        <path id="Path_3955" data-name="Path 3955"
              d="M258.979,921.49h0a.5.5,0,0,1-.5-.492h0V774.3a.494.494,0,0,1,.5-.491h0a.493.493,0,0,1,.5.491V921A.5.5,0,0,1,258.979,921.49Z"
              transform="translate(-11.668 1711.328)" fill="#121e5a"/>
        <rect id="Rectangle_11303" data-name="Rectangle 11303" width="11.437" height="40.342" rx="1.691"
              transform="translate(276.179 2514.833)" fill="#121e5a"/>
        <path id="Path_3956" data-name="Path 3956"
              d="M292.361,863.487h0a.493.493,0,0,1-.5-.491h0V783.874a.493.493,0,0,1,.5-.491h0a.493.493,0,0,1,.5.491V863a.493.493,0,0,1-.5.491Z"
              transform="translate(-10.464 1711.569)" fill="#121e5a"/>
        <rect id="Rectangle_11304" data-name="Rectangle 11304" width="11.437" height="40.342" rx="1.691"
              transform="translate(310.765 2490.657)" fill="#121e5a"/>
        <path id="Path_3957" data-name="Path 3957"
              d="M325.744,840.457h0a.5.5,0,0,1-.5-.491h0V738.318a.494.494,0,0,1,.5-.49h0a.494.494,0,0,1,.5.49h0V839.965a.5.5,0,0,1-.5.492Z"
              transform="translate(-9.261 1710.425)" fill="#121e5a"/>
        <rect id="Rectangle_11305" data-name="Rectangle 11305" width="11.437" height="85.39" rx="1.691"
              transform="translate(345.352 2436.541)" fill="#121e5a"/>
        <path id="Path_3958" data-name="Path 3958"
              d="M359.127,816.756h0a.494.494,0,0,1-.5-.491h0V669.57a.494.494,0,0,1,.5-.491h0a.494.494,0,0,1,.5.491V816.265A.494.494,0,0,1,359.127,816.756Z"
              transform="translate(-8.057 1708.697)" fill="#121e5a"/>
        <rect id="Rectangle_11306" data-name="Rectangle 11306" width="11.437" height="152.962" rx="1.691"
              transform="translate(387.982 2380.78)" fill="#121e5a"/>
        <path id="Path_3959" data-name="Path 3959"
              d="M392.51,867.864h0a.493.493,0,0,1-.5-.491V653.107a.493.493,0,0,1,.5-.492h0a.493.493,0,0,1,.5.491h0V867.373A.493.493,0,0,1,392.51,867.864Z"
              transform="translate(1.19 1708.283)" fill="#121e5a"/>
        <rect id="Rectangle_11307" data-name="Rectangle 11307" width="11.437" height="85.39" rx="1.691"
              transform="translate(423.289 2437.632)" fill="#121e5a"/>
        <path id="Path_3960" data-name="Path 3960"
              d="M425.888,817.427h0a.494.494,0,0,1-.5-.491V692.763a.494.494,0,0,1,.5-.491h0a.5.5,0,0,1,.5.491V816.935a.5.5,0,0,1-.5.492Z"
              transform="translate(3.114 1709.28)" fill="#121e5a"/>
        <rect id="Rectangle_11308" data-name="Rectangle 11308" width="11.437" height="62.866" rx="1.691"
              transform="translate(458.606 2470.635)" fill="#121e5a"/>
        <path id="Path_3961" data-name="Path 3961"
              d="M459.275,887.946h0a.494.494,0,0,1-.5-.491V740.76a.494.494,0,0,1,.5-.492h0a.493.493,0,0,1,.5.491h0V887.455A.494.494,0,0,1,459.275,887.946Z"
              transform="translate(5.048 1710.485)" fill="#121e5a"/>
        <rect id="Rectangle_11309" data-name="Rectangle 11309" width="11.437" height="40.341" rx="1.691"
              transform="translate(493.922 2485.031)" fill="#121e5a"/>
        <path id="Path_3962" data-name="Path 3962"
              d="M492.656,834.414h0a.493.493,0,0,1-.5-.49V754.806a.493.493,0,0,1,.5-.49h0a.493.493,0,0,1,.5.49v79.122A.493.493,0,0,1,492.656,834.414Z"
              transform="translate(6.982 1710.839)" fill="#121e5a"/>
        <rect id="Rectangle_11310" data-name="Rectangle 11310" width="11.437" height="17.817" rx="1.691"
              transform="translate(529.239 2485.882)" fill="#121e5a"/>
        <path id="Path_3963" data-name="Path 3963"
              d="M526.041,812.721h0a.493.493,0,0,1-.5-.49v-56.6a.493.493,0,0,1,.5-.491h0a.494.494,0,0,1,.5.491v56.6A.493.493,0,0,1,526.041,812.721Z"
              transform="translate(8.916 1710.859)" fill="#121e5a"/>
        <rect id="Rectangle_11311" data-name="Rectangle 11311" width="11.437" height="62.866" rx="1.691"
              transform="translate(564.556 2407.827)" fill="#121e5a"/>
        <path id="Path_3964" data-name="Path 3964"
              d="M559.424,765.991h0a.494.494,0,0,1-.5-.491V641.33a.494.494,0,0,1,.5-.491h0a.493.493,0,0,1,.5.491h0V765.5a.493.493,0,0,1-.5.491Z"
              transform="translate(10.85 1723.927)" fill="#121e5a"/>
        <rect id="Rectangle_11312" data-name="Rectangle 11312" width="11.437" height="85.39" rx="1.691"
              transform="translate(599.872 2369.365)" fill="#121e5a"/>
        <path id="Path_3965" data-name="Path 3965"
              d="M592.806,748.1h0a.494.494,0,0,1-.5-.491V623.439a.493.493,0,0,1,.5-.49h0a.493.493,0,0,1,.5.49V747.61A.494.494,0,0,1,592.806,748.1Z"
              transform="translate(12.784 1725.318)" fill="#121e5a"/>
        <rect id="Rectangle_11313" data-name="Rectangle 11313" width="11.437" height="152.962" rx="1.691"
              transform="translate(635.189 2304.129)" fill="#121e5a"/>
        <path id="Path_3966" data-name="Path 3966"
              d="M626.189,750.2h0a.494.494,0,0,1-.5-.491V557.963a.494.494,0,0,1,.5-.491h0a.494.494,0,0,1,.5.491V749.705A.494.494,0,0,1,626.189,750.2Z"
              transform="translate(14.718 1725.597)" fill="#121e5a"/>
        <rect id="Rectangle_11314" data-name="Rectangle 11314" width="11.437" height="62.866" rx="1.691"
              transform="translate(670.506 2340.587)" fill="#121e5a"/>
        <path id="Path_3967" data-name="Path 3967"
              d="M659.572,715.937h0a.5.5,0,0,1-.5-.492V568.753a.5.5,0,0,1,.5-.491h0a.494.494,0,0,1,.5.491h0V715.448A.5.5,0,0,1,659.572,715.937Z"
              transform="translate(16.652 1728.039)" fill="#121e5a"/>
        <rect id="Rectangle_11315" data-name="Rectangle 11315" width="11.437" height="17.817" rx="1.691"
              transform="translate(705.823 2277.59)" fill="#121e5a"/>
        <path id="Path_3968" data-name="Path 3968"
              d="M692.955,578.284h0a.493.493,0,0,1-.5-.491V521.2a.494.494,0,0,1,.5-.491h0a.494.494,0,0,1,.5.491h0v56.6A.493.493,0,0,1,692.955,578.284Z"
              transform="translate(18.586 1736.863)" fill="#121e5a"/>
        <rect id="Rectangle_11316" data-name="Rectangle 11316" width="11.437" height="70.431" rx="1.691"
              transform="translate(741.139 2242.817)" fill="#121e5a"/>
        <path id="Path_3969" data-name="Path 3969"
              d="M726.337,592.732h0a.457.457,0,0,1-.5-.405V489.908a.458.458,0,0,1,.5-.406h0a.458.458,0,0,1,.5.406V592.326A.458.458,0,0,1,726.337,592.732Z"
              transform="translate(20.52 1736.836)" fill="#121e5a"/>
        <rect id="Rectangle_11317" data-name="Rectangle 11317" width="11.437" height="130.438" rx="1.691"
              transform="translate(776.456 2192.282)" fill="#121e5a"/>
        <path id="Path_3970" data-name="Path 3970"
              d="M759.72,604.922h0a.494.494,0,0,1-.5-.49h0V435.212a.494.494,0,0,1,.5-.491h0a.494.494,0,0,1,.5.491h0V604.431a.494.494,0,0,1-.5.491Z"
              transform="translate(22.454 1737.76)" fill="#121e5a"/>
        <rect id="Rectangle_11318" data-name="Rectangle 11318" width="11.437" height="198.01" rx="1.691"
              transform="translate(811.772 2228.708)" fill="#121e5a"/>
        <path id="Path_3971" data-name="Path 3971"
              d="M793.1,741.157h0a.5.5,0,0,1-.5-.492V413.779a.5.5,0,0,1,.5-.491h0a.494.494,0,0,1,.5.491V740.665A.5.5,0,0,1,793.1,741.157Z"
              transform="translate(24.387 1729.41)" fill="#121e5a"/>
        <rect id="Rectangle_11319" data-name="Rectangle 11319" width="11.437" height="40.342" rx="1.691"
              transform="translate(847.089 2315.177)" fill="#121e5a"/>
        <path id="Path_3972" data-name="Path 3972"
              d="M826.486,642.1h0a.493.493,0,0,1-.5-.49V562.484a.493.493,0,0,1,.5-.491h0a.493.493,0,0,1,.5.49h0v79.122A.492.492,0,0,1,826.486,642.1Z"
              transform="translate(26.321 1732.795)" fill="#121e5a"/>
        <rect id="Rectangle_11320" data-name="Rectangle 11320" width="11.437" height="85.39" rx="3.558"
              transform="translate(882.406 2290.336)" fill="#121e5a"/>
        <path id="Path_3973" data-name="Path 3973"
              d="M859.869,663.123h0a.494.494,0,0,1-.5-.49h0V538.461a.5.5,0,0,1,.5-.491h0a.494.494,0,0,1,.5.491V662.632a.494.494,0,0,1-.5.491Z"
              transform="translate(28.255 1731.926)" fill="#121e5a"/>
        <rect id="Rectangle_11321" data-name="Rectangle 11321" width="11.437" height="17.817" rx="1.691"
              transform="translate(917.722 2309.057)" fill="#121e5a"/>
        <path id="Path_3974" data-name="Path 3974"
              d="M893.251,611.829h0a.493.493,0,0,1-.5-.491v-56.6a.493.493,0,0,1,.5-.491h0a.494.494,0,0,1,.5.491h0v56.6A.493.493,0,0,1,893.251,611.829Z"
              transform="translate(30.189 1734.568)" fill="#121e5a"/>
        <rect id="Rectangle_11322" data-name="Rectangle 11322" width="11.437" height="85.39" rx="1.691"
              transform="translate(953.039 2263.883)" fill="#121e5a"/>
        <path id="Path_3975" data-name="Path 3975"
              d="M926.634,635.62h0a.494.494,0,0,1-.5-.491V488.434a.494.494,0,0,1,.5-.492h0a.5.5,0,0,1,.5.492V635.129A.5.5,0,0,1,926.634,635.62Z"
              transform="translate(32.123 1734.568)" fill="#121e5a"/>
        <rect id="Rectangle_11323" data-name="Rectangle 11323" width="11.437" height="152.962" rx="1.691"
              transform="translate(988.356 2221.807)" fill="#121e5a"/>
        <path id="Path_3976" data-name="Path 3976"
              d="M960.017,660.745h0a.494.494,0,0,1-.5-.49h0V468.512a.493.493,0,0,1,.5-.491h0a.494.494,0,0,1,.5.491h0V660.256A.493.493,0,0,1,960.017,660.745Z"
              transform="translate(34.057 1733.573)" fill="#121e5a"/>
        <rect id="Rectangle_11324" data-name="Rectangle 11324" width="11.437" height="198.01" rx="1.691"
              transform="translate(1023.673 2237.073)" fill="#121e5a"/>
        <path id="Path_3977" data-name="Path 3977"
              d="M993.4,769.143h0a.5.5,0,0,1-.5-.492V486.812a.493.493,0,0,1,.5-.49h0a.493.493,0,0,1,.5.49h0V768.652A.494.494,0,0,1,993.4,769.143Z"
              transform="translate(35.991 1724.986)" fill="#121e5a"/>
        <rect id="Rectangle_11325" data-name="Rectangle 11325" width="11.437" height="62.866" rx="1.691"
              transform="translate(1058.989 2300.673)" fill="#121e5a"/>
        <path id="Path_3978" data-name="Path 3978"
              d="M1026.784,650.377h0a.494.494,0,0,1-.5-.491V548.236a.494.494,0,0,1,.5-.492h0a.5.5,0,0,1,.5.492V649.883a.494.494,0,0,1-.494.494Z"
              transform="translate(37.925 1732.531)" fill="#121e5a"/>
        <rect id="Rectangle_11326" data-name="Rectangle 11326" width="11.437" height="17.817" rx="1.691"
              transform="translate(1094.306 2363.596)" fill="#121e5a"/>
        <path id="Path_3979" data-name="Path 3979"
              d="M1060.167,669.971h0a.5.5,0,0,1-.5-.491v-56.6a.494.494,0,0,1,.5-.491h0a.493.493,0,0,1,.5.491v56.6A.494.494,0,0,1,1060.167,669.971Z"
              transform="translate(39.859 1730.591)" fill="#121e5a"/>
        <rect id="Rectangle_11327" data-name="Rectangle 11327" width="11.437" height="40.341" rx="1.691"
              transform="translate(1129.623 2407.227)" fill="#121e5a"/>
        <path id="Path_3980" data-name="Path 3980"
              d="M1093.549,740.492h0a.493.493,0,0,1-.5-.491V660.879a.492.492,0,0,1,.495-.491h0a.493.493,0,0,1,.5.491h0V740A.494.494,0,0,1,1093.549,740.492Z"
              transform="translate(41.793 1725.777)" fill="#121e5a"/>
        <rect id="Rectangle_11328" data-name="Rectangle 11328" width="11.437" height="85.39" rx="1.691"
              transform="translate(1164.939 2382.289)" fill="#121e5a"/>
        <path id="Path_3981" data-name="Path 3981"
              d="M1126.931,784.595h0a.494.494,0,0,1-.5-.492V614.885a.493.493,0,0,1,.5-.491h0a.5.5,0,0,1,.5.491V784.107A.5.5,0,0,1,1126.931,784.595Z"
              transform="translate(43.726 1722.472)" fill="#121e5a"/>
        <rect id="Rectangle_11329" data-name="Rectangle 11329" width="11.437" height="107.914" rx="1.691"
              transform="translate(1200.256 2408.233)" fill="#121e5a"/>
        <path id="Path_3982" data-name="Path 3982"
              d="M1160.315,809.677h0a.494.494,0,0,1-.5-.491V662.491a.5.5,0,0,1,.5-.492h0a.5.5,0,0,1,.5.492V809.186A.493.493,0,0,1,1160.315,809.677Z"
              transform="translate(45.66 1708.519)" fill="#121e5a"/>
        <rect id="Rectangle_11330" data-name="Rectangle 11330" width="11.437" height="130.438" rx="1.691"
              transform="translate(1235.573 2315.044)" fill="#121e5a"/>
        <path id="Path_3983" data-name="Path 3983"
              d="M1193.7,737.818h0a.493.493,0,0,1-.5-.491V568.109a.493.493,0,0,1,.5-.491h0a.493.493,0,0,1,.495.491V737.327A.493.493,0,0,1,1193.7,737.818Z"
              transform="translate(47.594 1726.452)" fill="#121e5a"/>
        <rect id="Rectangle_11331" data-name="Rectangle 11331" width="11.437" height="40.342" rx="1.691"
              transform="translate(1270.889 2386.655)" fill="#121e5a"/>
        <path id="Path_3984" data-name="Path 3984"
              d="M1227.08,741.206h0a.493.493,0,0,1-.5-.491V616.545a.494.494,0,0,1,.5-.491h0a.5.5,0,0,1,.5.491v124.17A.5.5,0,0,1,1227.08,741.206Z"
              transform="translate(49.528 1725.854)" fill="#121e5a"/>
        <rect id="Rectangle_11332" data-name="Rectangle 11332" width="11.437" height="62.866" rx="1.691"
              transform="translate(1306.206 2352.826)" fill="#121e5a"/>
        <path id="Path_3985" data-name="Path 3985"
              d="M1260.463,706.28h0a.494.494,0,0,1-.5-.491h0V604.143a.494.494,0,0,1,.5-.491h0a.494.494,0,0,1,.5.491V705.789A.5.5,0,0,1,1260.463,706.28Z"
              transform="translate(51.462 1728.37)" fill="#121e5a"/>
        <rect id="Rectangle_11333" data-name="Rectangle 11333" width="11.437" height="17.817" rx="1.691"
              transform="translate(1341.523 2334.055)" fill="#121e5a"/>
        <path id="Path_3986" data-name="Path 3986"
              d="M1293.846,638.479h0a.5.5,0,0,1-.5-.491v-56.6a.5.5,0,0,1,.5-.492h0a.494.494,0,0,1,.5.491h0v56.6A.494.494,0,0,1,1293.846,638.479Z"
              transform="translate(53.396 1732.745)" fill="#121e5a"/>
        <rect id="Rectangle_11334" data-name="Rectangle 11334" width="11.437" height="130.438" rx="1.691"
              transform="translate(1376.839 2223.98)" fill="#121e5a"/>
        <path id="Path_3987" data-name="Path 3987"
              d="M1327.228,639.237h0a.493.493,0,0,1-.5-.491V469.528a.493.493,0,0,1,.5-.491h0a.492.492,0,0,1,.5.49h0V638.746a.493.493,0,0,1-.5.491Z"
              transform="translate(55.33 1734.84)" fill="#121e5a"/>
        <rect id="Rectangle_11335" data-name="Rectangle 11335" width="11.437" height="198.01" rx="1.691"
              transform="translate(1412.156 2204.455)" fill="#121e5a"/>
        <path id="Path_3988" data-name="Path 3988"
              d="M1360.611,733.547h0a.492.492,0,0,1-.5-.489h0V451.218a.493.493,0,0,1,.5-.491h0a.493.493,0,0,1,.5.491V733.057a.492.492,0,0,1-.5.49Z"
              transform="translate(57.264 1728.866)" fill="#121e5a"/>
        <rect id="Rectangle_11336" data-name="Rectangle 11336" width="11.437" height="62.866" rx="1.691"
              transform="translate(1447.473 2225.747)" fill="#121e5a"/>
        <path id="Path_3989" data-name="Path 3989"
              d="M1393.994,570.054h0a.493.493,0,0,1-.5-.491V467.916a.493.493,0,0,1,.5-.491h0a.493.493,0,0,1,.5.491V569.563A.493.493,0,0,1,1393.994,570.054Z"
              transform="translate(59.198 1738.509)" fill="#121e5a"/>
        <rect id="Rectangle_11337" data-name="Rectangle 11337" width="11.437" height="40.341" rx="1.691"
              transform="translate(1482.789 2185.641)" fill="#121e5a"/>
        <path id="Path_3990" data-name="Path 3990"
              d="M1427.377,503.635h0a.494.494,0,0,1-.5-.49V424.021a.5.5,0,0,1,.5-.491h0a.5.5,0,0,1,.5.491v79.124A.494.494,0,0,1,1427.377,503.635Z"
              transform="translate(61.131 1742.671)" fill="#121e5a"/>
        <rect id="Rectangle_11338" data-name="Rectangle 11338" width="11.437" height="85.39" rx="1.691"
              transform="translate(1518.106 2119.97)" fill="#121e5a"/>
        <path id="Path_3991" data-name="Path 3991"
              d="M1460.756,479.934h0a.492.492,0,0,1-.5-.489V355.272a.493.493,0,0,1,.5-.49h0a.493.493,0,0,1,.5.49V479.443a.494.494,0,0,1-.5.491Z"
              transform="translate(63.065 1746.169)" fill="#121e5a"/>
        <rect id="Rectangle_11339" data-name="Rectangle 11339" width="11.437" height="107.914" rx="1.691"
              transform="translate(1553.423 2142.991)" fill="#121e5a"/>
        <path id="Path_3992" data-name="Path 3992"
              d="M1494.142,528.093h0a.493.493,0,0,1-.5-.491V380.907a.494.494,0,0,1,.5-.491h0a.494.494,0,0,1,.5.491V527.6A.493.493,0,0,1,1494.142,528.093Z"
              transform="translate(64.999 1743.309)" fill="#121e5a"/>
        <rect id="Rectangle_11340" data-name="Rectangle 11340" width="11.437" height="40.341" rx="1.691"
              transform="translate(1588.73 2205.287)" fill="#121e5a"/>
        <path id="Path_3993" data-name="Path 3993"
              d="M1527.524,526.711h0a.493.493,0,0,1-.5-.491h0V402.049a.494.494,0,0,1,.5-.491h0a.5.5,0,0,1,.5.491V526.22a.5.5,0,0,1-.5.491Z"
              transform="translate(66.923 1742.532)" fill="#121e5a"/>
        <rect id="Rectangle_11341" data-name="Rectangle 11341" width="11.437" height="17.817" rx="1.691"
              transform="translate(1631.36 2217.608)" fill="#121e5a"/>
        <path id="Path_3994" data-name="Path 3994"
              d="M1560.907,516.384h0a.494.494,0,0,1-.5-.492V414.246a.493.493,0,0,1,.495-.491h0a.493.493,0,0,1,.5.491h0V515.892A.5.5,0,0,1,1560.907,516.384Z"
              transform="translate(76.171 1742.504)" fill="#121e5a"/>
        <rect id="Rectangle_11342" data-name="Rectangle 11342" width="11.437" height="62.866" rx="1.691"
              transform="translate(1665.947 2222.757)" fill="#121e5a"/>
        <path id="Path_3995" data-name="Path 3995"
              d="M1594.294,588.955h0a.494.494,0,0,1-.5-.491h0V464.294a.493.493,0,0,1,.5-.491h0a.493.493,0,0,1,.5.491h0v124.17a.494.494,0,0,1-.5.491Z"
              transform="translate(77.374 1737.692)" fill="#121e5a"/>
        <rect id="Rectangle_11343" data-name="Rectangle 11343" width="11.437" height="152.962" rx="1.691"
              transform="translate(1700.533 2090.263)" fill="#121e5a"/>
        <path id="Path_3996" data-name="Path 3996"
              d="M1627.674,517.81h0a.493.493,0,0,1-.5-.491h0V325.576a.493.493,0,0,1,.5-.49h0a.493.493,0,0,1,.5.49h0V517.32A.494.494,0,0,1,1627.674,517.81Z"
              transform="translate(78.578 1746.318)" fill="#121e5a"/>
        <rect id="Rectangle_11344" data-name="Rectangle 11344" width="11.437" height="107.914" rx="1.691"
              transform="translate(1735.119 2113.969)" fill="#121e5a"/>
        <path id="Path_3997" data-name="Path 3997"
              d="M1661.057,496.785h0a.493.493,0,0,1-.5-.49h0v-146.7a.494.494,0,0,1,.5-.491h0a.493.493,0,0,1,.495.49h0v146.7A.492.492,0,0,1,1661.057,496.785Z"
              transform="translate(79.782 1745.855)" fill="#121e5a"/>
        <rect id="Rectangle_11345" data-name="Rectangle 11345" width="11.437" height="40.341" rx="1.691"
              transform="translate(1769.706 2135.432)" fill="#121e5a"/>
        <path id="Path_3998" data-name="Path 3998"
              d="M1694.438,449.964h0a.494.494,0,0,1-.5-.491h0V370.351a.494.494,0,0,1,.5-.491h0a.493.493,0,0,1,.5.491h0v79.122a.493.493,0,0,1-.5.491Z"
              transform="translate(80.985 1746.498)" fill="#121e5a"/>
        <rect id="Rectangle_11346" data-name="Rectangle 11346" width="11.437" height="85.39" rx="1.691"
              transform="translate(1804.292 2020.385)" fill="#121e5a"/>
        <path id="Path_3999" data-name="Path 3999"
              d="M1727.82,377.438h0a.494.494,0,0,1-.5-.491h0V252.777a.5.5,0,0,1,.5-.492h0a.5.5,0,0,1,.5.492v124.17A.5.5,0,0,1,1727.82,377.438Z"
              transform="translate(82.189 1766.103)" fill="#121e5a"/>
        <rect id="Rectangle_11347" data-name="Rectangle 11347" width="11.437" height="198.01" rx="1.691"
              transform="translate(1838.878 1973.651)" fill="#121e5a"/>
        <path id="Path_4000" data-name="Path 4000"
              d="M1761.2,473.174h0a.493.493,0,0,1-.5-.491V145.8a.493.493,0,0,1,.5-.491h0a.5.5,0,0,1,.5.49h0V472.683a.5.5,0,0,1-.5.491Z"
              transform="translate(83.392 1763.414)" fill="#121e5a"/>
        <rect id="Rectangle_11348" data-name="Rectangle 11348" width="11.437" height="130.438" rx="1.691"
              transform="translate(1873.465 2030.531)" fill="#121e5a"/>
        <path id="Path_4001" data-name="Path 4001"
              d="M1794.587,474.468h0a.494.494,0,0,1-.5-.491V259.71a.494.494,0,0,1,.5-.491h0a.493.493,0,0,1,.5.491h0V473.977a.493.493,0,0,1-.5.491Z"
              transform="translate(84.596 1751.65)" fill="#121e5a"/>
        <rect id="Rectangle_11349" data-name="Rectangle 11349" width="11.437" height="40.342" rx="1.691"
              transform="translate(1908.051 1966.993)" fill="#121e5a"/>
        <path id="Path_4002" data-name="Path 4002"
              d="M1827.97,262.861h0a.493.493,0,0,1-.5-.49h0V183.247a.493.493,0,0,1,.5-.491h0a.494.494,0,0,1,.5.491V262.37A.494.494,0,0,1,1827.97,262.861Z"
              transform="translate(85.8 1764.356)" fill="#121e5a"/>
        <rect id="Rectangle_11350" data-name="Rectangle 11350" width="11.437" height="17.817" rx="1.691"
              transform="translate(1942.638 1941.565)" fill="#121e5a"/>
        <path id="Path_4003" data-name="Path 4003"
              d="M1861.353,216.084h0a.492.492,0,0,1-.5-.49h0V136.471a.494.494,0,0,1,.5-.491h0a.493.493,0,0,1,.5.491h0v79.123a.493.493,0,0,1-.5.49Z"
              transform="translate(87.003 1763.18)" fill="#121e5a"/>
    </g>
</svg>
