<svg xmlns="http://www.w3.org/2000/svg" width="1036.408" height="396.026" viewBox="0 0 1036.408 396.026">
    <g id="bg-candles" transform="translate(-34.074 -1899.16)" opacity="0.603"
       style="mix-blend-mode: normal;isolation: isolate">
        <rect id="Rectangle_11295" data-name="Rectangle 11295" width="6.173" height="58.251" rx="1.691"
              transform="translate(34.074 2196.708)" fill="#121e5a"/>
        <path id="Path_3948" data-name="Path 3948"
              d="M58.453,800.229h0a.268.268,0,0,1-.268-.266V720.779a.267.267,0,0,1,.268-.265h0a.266.266,0,0,1,.268.265v79.185A.268.268,0,0,1,58.453,800.229Z"
              transform="translate(-21.292 1465.463)" fill="#121e5a"/>
        <rect id="Rectangle_11297" data-name="Rectangle 11297" width="6.173" height="46.093" rx="1.691"
              transform="translate(52.744 2184.793)" fill="#121e5a"/>
        <path id="Path_3950" data-name="Path 3950"
              d="M91.837,766.537h0a.266.266,0,0,1-.268-.265V699.246a.267.267,0,0,1,.268-.265h0a.266.266,0,0,1,.267.265v67.027A.266.266,0,0,1,91.837,766.537Z"
              transform="translate(-36.006 1475.08)" fill="#121e5a"/>
        <rect id="Rectangle_11298" data-name="Rectangle 11298" width="6.173" height="46.093" rx="1.691"
              transform="translate(71.413 2210.677)" fill="#121e5a"/>
        <path id="Path_3951" data-name="Path 3951"
              d="M125.219,813.313h0a.266.266,0,0,1-.267-.265V746.022a.266.266,0,0,1,.267-.265h0a.267.267,0,0,1,.268.265v67.027A.267.267,0,0,1,125.219,813.313Z"
              transform="translate(-50.719 1454.188)" fill="#121e5a"/>
        <rect id="Rectangle_11299" data-name="Rectangle 11299" width="6.173" height="33.935" rx="1.691"
              transform="translate(90.083 2203.815)" fill="#121e5a"/>
        <path id="Path_3952" data-name="Path 3952"
              d="M158.6,788.753h0a.266.266,0,0,1-.268-.265V733.62a.267.267,0,0,1,.268-.266h0a.267.267,0,0,1,.268.266v54.868A.267.267,0,0,1,158.6,788.753Z"
              transform="translate(-65.432 1459.728)" fill="#121e5a"/>
        <rect id="Rectangle_11300" data-name="Rectangle 11300" width="6.173" height="58.251" rx="1.691"
              transform="translate(108.753 2189.171)" fill="#121e5a"/>
        <path id="Path_3953" data-name="Path 3953"
              d="M191.985,766.979h0a.266.266,0,0,1-.268-.265v-103.5a.267.267,0,0,1,.268-.265h0a.267.267,0,0,1,.268.265v103.5A.266.266,0,0,1,191.985,766.979Z"
              transform="translate(-80.146 1491.175)" fill="#121e5a"/>
        <rect id="Rectangle_11301" data-name="Rectangle 11301" width="6.173" height="33.935" rx="1.691"
              transform="translate(127.422 2228.563)" fill="#121e5a"/>
        <path id="Path_3954" data-name="Path 3954"
              d="M225.368,833.479h0a.266.266,0,0,1-.268-.265h0V778.345a.266.266,0,0,1,.268-.265h0a.266.266,0,0,1,.268.264h0v54.868a.266.266,0,0,1-.267.266Z"
              transform="translate(-94.859 1439.751)" fill="#121e5a"/>
        <rect id="Rectangle_11302" data-name="Rectangle 11302" width="6.173" height="33.935" rx="1.691"
              transform="translate(146.092 2226.202)" fill="#121e5a"/>
        <path id="Path_3955" data-name="Path 3955"
              d="M258.75,853.528h0a.267.267,0,0,1-.268-.266h0V774.077a.267.267,0,0,1,.268-.265h0a.266.266,0,0,1,.267.265v79.185A.267.267,0,0,1,258.75,853.528Z"
              transform="translate(-109.572 1441.658)" fill="#121e5a"/>
        <rect id="Rectangle_11303" data-name="Rectangle 11303" width="6.173" height="21.777" rx="1.691"
              transform="translate(164.761 2231.498)" fill="#121e5a"/>
        <path id="Path_3956" data-name="Path 3956"
              d="M292.133,826.623h0a.266.266,0,0,1-.267-.265h0v-42.71a.266.266,0,0,1,.267-.265h0a.266.266,0,0,1,.268.265v42.71a.266.266,0,0,1-.267.265Z"
              transform="translate(-124.285 1437.383)" fill="#121e5a"/>
        <rect id="Rectangle_11304" data-name="Rectangle 11304" width="6.173" height="21.777" rx="1.691"
              transform="translate(183.431 2218.448)" fill="#121e5a"/>
        <path id="Path_3957" data-name="Path 3957"
              d="M325.516,793.227h0a.267.267,0,0,1-.268-.265h0V738.093a.266.266,0,0,1,.268-.265h0a.267.267,0,0,1,.268.265h0v54.868a.267.267,0,0,1-.267.266Z"
              transform="translate(-138.998 1457.73)" fill="#121e5a"/>
        <rect id="Rectangle_11305" data-name="Rectangle 11305" width="6.173" height="46.093" rx="1.691"
              transform="translate(202.101 2189.236)" fill="#121e5a"/>
        <path id="Path_3958" data-name="Path 3958"
              d="M358.9,748.794h0a.267.267,0,0,1-.268-.265h0V669.344a.266.266,0,0,1,.268-.265h0a.266.266,0,0,1,.268.265v79.185A.267.267,0,0,1,358.9,748.794Z"
              transform="translate(-153.711 1488.436)" fill="#121e5a"/>
        <rect id="Rectangle_11306" data-name="Rectangle 11306" width="6.173" height="82.568" rx="1.691"
              transform="translate(225.112 2159.136)" fill="#121e5a"/>
        <path id="Path_3959" data-name="Path 3959"
              d="M392.282,768.806h0a.266.266,0,0,1-.268-.265V652.881a.266.266,0,0,1,.267-.266h0a.266.266,0,0,1,.267.265h0v115.66A.266.266,0,0,1,392.282,768.806Z"
              transform="translate(-164.083 1495.789)" fill="#121e5a"/>
        <rect id="Rectangle_11307" data-name="Rectangle 11307" width="6.173" height="46.093" rx="1.691"
              transform="translate(244.171 2189.825)" fill="#121e5a"/>
        <path id="Path_3960" data-name="Path 3960"
              d="M425.66,759.83h0a.267.267,0,0,1-.268-.265V692.537a.267.267,0,0,1,.268-.265h0a.267.267,0,0,1,.268.265v67.027a.267.267,0,0,1-.268.266Z"
              transform="translate(-178.405 1478.077)" fill="#121e5a"/>
        <rect id="Rectangle_11308" data-name="Rectangle 11308" width="6.173" height="33.935" rx="1.691"
              transform="translate(263.234 2207.64)" fill="#121e5a"/>
        <path id="Path_3961" data-name="Path 3961"
              d="M459.047,819.984h0a.267.267,0,0,1-.268-.265V740.534a.267.267,0,0,1,.268-.266h0a.266.266,0,0,1,.268.265h0v79.185A.266.266,0,0,1,459.047,819.984Z"
              transform="translate(-192.726 1456.64)" fill="#121e5a"/>
        <rect id="Rectangle_11309" data-name="Rectangle 11309" width="6.173" height="21.776" rx="1.691"
              transform="translate(282.298 2215.411)" fill="#121e5a"/>
        <path id="Path_3962" data-name="Path 3962"
              d="M492.428,797.553h0a.266.266,0,0,1-.267-.264V754.581a.266.266,0,0,1,.267-.264h0a.266.266,0,0,1,.268.264v42.71A.266.266,0,0,1,492.428,797.553Z"
              transform="translate(-207.045 1450.365)" fill="#121e5a"/>
        <rect id="Rectangle_11310" data-name="Rectangle 11310" width="6.173" height="9.618" rx="1.691"
              transform="translate(301.362 2215.87)" fill="#121e5a"/>
        <path id="Path_3963" data-name="Path 3963"
              d="M525.813,786.223h0a.266.266,0,0,1-.268-.264V755.407a.266.266,0,0,1,.268-.265h0a.266.266,0,0,1,.268.265v30.552A.266.266,0,0,1,525.813,786.223Z"
              transform="translate(-221.364 1449.996)" fill="#121e5a"/>
        <rect id="Rectangle_11311" data-name="Rectangle 11311" width="6.173" height="33.935" rx="1.691"
              transform="translate(320.426 2173.737)" fill="#121e5a"/>
        <path id="Path_3964" data-name="Path 3964"
              d="M559.2,708.4h0a.266.266,0,0,1-.268-.265V641.1a.267.267,0,0,1,.268-.265h0a.266.266,0,0,1,.268.265h0V708.13a.266.266,0,0,1-.267.265Z"
              transform="translate(-235.683 1509.653)" fill="#121e5a"/>
        <rect id="Rectangle_11312" data-name="Rectangle 11312" width="6.173" height="46.093" rx="1.691"
              transform="translate(339.49 2152.975)" fill="#121e5a"/>
        <path id="Path_3965" data-name="Path 3965"
              d="M592.578,690.505h0a.266.266,0,0,1-.267-.265V623.214a.266.266,0,0,1,.267-.265h0a.266.266,0,0,1,.268.265V690.24A.267.267,0,0,1,592.578,690.505Z"
              transform="translate(-250.002 1518.637)" fill="#121e5a"/>
        <rect id="Rectangle_11313" data-name="Rectangle 11313" width="6.173" height="82.568" rx="1.691"
              transform="translate(358.554 2117.76)" fill="#121e5a"/>
        <path id="Path_3966" data-name="Path 3966"
              d="M625.961,661.5h0a.267.267,0,0,1-.268-.265v-103.5a.267.267,0,0,1,.268-.265h0a.267.267,0,0,1,.268.265v103.5A.267.267,0,0,1,625.961,661.5Z"
              transform="translate(-264.321 1548.92)" fill="#121e5a"/>
        <rect id="Rectangle_11314" data-name="Rectangle 11314" width="6.173" height="33.935" rx="1.691"
              transform="translate(377.617 2137.44)" fill="#121e5a"/>
        <path id="Path_3967" data-name="Path 3967"
              d="M659.344,647.976h0a.267.267,0,0,1-.268-.266V568.527a.267.267,0,0,1,.268-.265h0a.267.267,0,0,1,.268.265h0v79.185A.267.267,0,0,1,659.344,647.976Z"
              transform="translate(-278.639 1545.273)" fill="#121e5a"/>
        <rect id="Rectangle_11315" data-name="Rectangle 11315" width="6.173" height="9.618" rx="1.691"
              transform="translate(396.681 2103.435)" fill="#121e5a"/>
        <path id="Path_3968" data-name="Path 3968"
              d="M692.727,551.786h0a.266.266,0,0,1-.268-.265V520.969a.267.267,0,0,1,.268-.265h0a.267.267,0,0,1,.267.265h0v30.552A.266.266,0,0,1,692.727,551.786Z"
              transform="translate(-292.959 1571.923)" fill="#121e5a"/>
        <rect id="Rectangle_11316" data-name="Rectangle 11316" width="6.173" height="38.018" rx="1.691"
              transform="translate(415.745 2084.665)" fill="#121e5a"/>
        <path id="Path_3969" data-name="Path 3969"
              d="M726.109,545.224h0a.247.247,0,0,1-.267-.219V489.72a.247.247,0,0,1,.267-.219h0a.247.247,0,0,1,.268.219v55.285A.247.247,0,0,1,726.109,545.224Z"
              transform="translate(-307.278 1586.268)" fill="#121e5a"/>
        <rect id="Rectangle_11317" data-name="Rectangle 11317" width="6.173" height="70.41" rx="1.691"
              transform="translate(434.809 2057.386)" fill="#121e5a"/>
        <path id="Path_3970" data-name="Path 3970"
              d="M759.492,526.595h0a.266.266,0,0,1-.268-.264h0V434.986a.266.266,0,0,1,.267-.265h0a.267.267,0,0,1,.268.265h0V526.33a.267.267,0,0,1-.268.265Z"
              transform="translate(-321.597 1611.977)" fill="#121e5a"/>
        <rect id="Rectangle_11318" data-name="Rectangle 11318" width="6.173" height="106.885" rx="1.691"
              transform="translate(453.872 2077.049)" fill="#121e5a"/>
        <path id="Path_3971" data-name="Path 3971"
              d="M792.875,590.27h0a.267.267,0,0,1-.268-.266V413.553a.267.267,0,0,1,.268-.265h0a.266.266,0,0,1,.268.265V590A.267.267,0,0,1,792.875,590.27Z"
              transform="translate(-335.916 1617.333)" fill="#121e5a"/>
        <rect id="Rectangle_11319" data-name="Rectangle 11319" width="6.173" height="21.777" rx="1.691"
              transform="translate(472.936 2123.724)" fill="#121e5a"/>
        <path id="Path_3972" data-name="Path 3972"
              d="M826.258,605.232h0a.266.266,0,0,1-.268-.264v-42.71a.266.266,0,0,1,.268-.265h0a.266.266,0,0,1,.268.264h0v42.71A.266.266,0,0,1,826.258,605.232Z"
              transform="translate(-350.235 1550.725)" fill="#121e5a"/>
        <rect id="Rectangle_11320" data-name="Rectangle 11320" width="6.173" height="46.093" rx="3.087"
              transform="translate(492 2110.315)" fill="#121e5a"/>
        <path id="Path_3973" data-name="Path 3973"
              d="M859.64,605.527h0a.267.267,0,0,1-.268-.264h0V538.235a.267.267,0,0,1,.268-.265h0a.266.266,0,0,1,.267.265v67.027a.266.266,0,0,1-.267.265Z"
              transform="translate(-364.554 1561.312)" fill="#121e5a"/>
        <rect id="Rectangle_11321" data-name="Rectangle 11321" width="6.173" height="9.618" rx="1.691"
              transform="translate(511.064 2120.421)" fill="#121e5a"/>
        <path id="Path_3974" data-name="Path 3974"
              d="M893.023,585.331h0a.266.266,0,0,1-.267-.265V554.514a.266.266,0,0,1,.267-.265h0a.266.266,0,0,1,.268.265h0v30.552A.266.266,0,0,1,893.023,585.331Z"
              transform="translate(-378.873 1555.246)" fill="#121e5a"/>
        <rect id="Rectangle_11322" data-name="Rectangle 11322" width="6.173" height="46.093" rx="1.691"
              transform="translate(530.128 2096.036)" fill="#121e5a"/>
        <path id="Path_3975" data-name="Path 3975"
              d="M926.406,567.658h0a.267.267,0,0,1-.268-.265V488.208a.267.267,0,0,1,.267-.266h0a.267.267,0,0,1,.268.266v79.185A.267.267,0,0,1,926.406,567.658Z"
              transform="translate(-393.192 1585.761)" fill="#121e5a"/>
        <rect id="Rectangle_11323" data-name="Rectangle 11323" width="6.173" height="82.568" rx="1.691"
              transform="translate(549.191 2073.324)" fill="#121e5a"/>
        <path id="Path_3976" data-name="Path 3976"
              d="M959.789,572.053h0a.267.267,0,0,1-.268-.264h0v-103.5a.266.266,0,0,1,.268-.265h0a.267.267,0,0,1,.268.265h0v103.5A.266.266,0,0,1,959.789,572.053Z"
              transform="translate(-407.51 1594.392)" fill="#121e5a"/>
        <rect id="Rectangle_11324" data-name="Rectangle 11324" width="6.173" height="106.885" rx="1.691"
              transform="translate(568.255 2081.564)" fill="#121e5a"/>
        <path id="Path_3977" data-name="Path 3977"
              d="M993.172,638.988h0a.267.267,0,0,1-.268-.266V486.587a.266.266,0,0,1,.268-.264h0a.266.266,0,0,1,.267.264h0V638.722A.267.267,0,0,1,993.172,638.988Z"
              transform="translate(-421.83 1581.334)" fill="#121e5a"/>
        <rect id="Rectangle_11325" data-name="Rectangle 11325" width="6.173" height="33.935" rx="1.691"
              transform="translate(587.319 2115.895)" fill="#121e5a"/>
        <path id="Path_3978" data-name="Path 3978"
              d="M1026.555,603.145h0a.266.266,0,0,1-.268-.265V548.01a.267.267,0,0,1,.268-.266h0a.267.267,0,0,1,.267.266v54.868a.267.267,0,0,1-.267.267Z"
              transform="translate(-436.149 1557.14)" fill="#121e5a"/>
        <rect id="Rectangle_11326" data-name="Rectangle 11326" width="6.173" height="9.618" rx="1.691"
              transform="translate(606.383 2149.861)" fill="#121e5a"/>
        <path id="Path_3979" data-name="Path 3979"
              d="M1059.938,643.473h0a.267.267,0,0,1-.268-.265V612.656a.267.267,0,0,1,.268-.265h0a.266.266,0,0,1,.268.265v30.552A.266.266,0,0,1,1059.938,643.473Z"
              transform="translate(-450.468 1526.342)" fill="#121e5a"/>
        <rect id="Rectangle_11327" data-name="Rectangle 11327" width="6.173" height="21.776" rx="1.691"
              transform="translate(625.447 2173.413)" fill="#121e5a"/>
        <path id="Path_3980" data-name="Path 3980"
              d="M1093.321,703.628h0a.266.266,0,0,1-.268-.265V660.653a.266.266,0,0,1,.267-.265h0a.266.266,0,0,1,.268.265h0v42.71A.267.267,0,0,1,1093.321,703.628Z"
              transform="translate(-464.787 1501.655)" fill="#121e5a"/>
        <rect id="Rectangle_11328" data-name="Rectangle 11328" width="6.173" height="46.093" rx="1.691"
              transform="translate(644.51 2159.951)" fill="#121e5a"/>
        <path id="Path_3981" data-name="Path 3981"
              d="M1126.7,706.268h0a.266.266,0,0,1-.268-.266V614.659a.266.266,0,0,1,.268-.265h0a.267.267,0,0,1,.269.265V706A.268.268,0,0,1,1126.7,706.268Z"
              transform="translate(-479.106 1521.038)" fill="#121e5a"/>
        <rect id="Rectangle_11329" data-name="Rectangle 11329" width="6.173" height="58.251" rx="1.691"
              transform="translate(663.574 2173.956)" fill="#121e5a"/>
        <path id="Path_3982" data-name="Path 3982"
              d="M1160.086,741.715h0a.267.267,0,0,1-.268-.265V662.265a.268.268,0,0,1,.268-.266h0a.267.267,0,0,1,.268.266V741.45A.266.266,0,0,1,1160.086,741.715Z"
              transform="translate(-493.425 1491.598)" fill="#121e5a"/>
        <rect id="Rectangle_11330" data-name="Rectangle 11330" width="6.173" height="70.41" rx="1.691"
              transform="translate(682.638 2123.653)" fill="#121e5a"/>
        <path id="Path_3983" data-name="Path 3983"
              d="M1193.469,659.491h0a.266.266,0,0,1-.268-.265V567.883a.266.266,0,0,1,.268-.265h0a.266.266,0,0,1,.267.265v91.343A.266.266,0,0,1,1193.469,659.491Z"
              transform="translate(-507.744 1544.713)" fill="#121e5a"/>
        <rect id="Rectangle_11331" data-name="Rectangle 11331" width="6.173" height="21.777" rx="1.691"
              transform="translate(701.702 2162.308)" fill="#121e5a"/>
        <path id="Path_3984" data-name="Path 3984"
              d="M1226.852,683.61h0a.266.266,0,0,1-.267-.265V616.319a.266.266,0,0,1,.267-.265h0a.267.267,0,0,1,.268.265v67.026A.267.267,0,0,1,1226.852,683.61Z"
              transform="translate(-522.063 1522.1)" fill="#121e5a"/>
        <rect id="Rectangle_11332" data-name="Rectangle 11332" width="6.173" height="33.935" rx="1.691"
              transform="translate(720.766 2144.047)" fill="#121e5a"/>
        <path id="Path_3985" data-name="Path 3985"
              d="M1260.234,659.05h0a.267.267,0,0,1-.268-.265h0V603.917a.266.266,0,0,1,.268-.265h0a.267.267,0,0,1,.268.265v54.868A.267.267,0,0,1,1260.234,659.05Z"
              transform="translate(-536.381 1529.165)" fill="#121e5a"/>
        <rect id="Rectangle_11333" data-name="Rectangle 11333" width="6.173" height="9.618" rx="1.691"
              transform="translate(739.829 2133.915)" fill="#121e5a"/>
        <path id="Path_3986" data-name="Path 3986"
              d="M1293.617,611.98h0a.267.267,0,0,1-.269-.265V581.164a.267.267,0,0,1,.269-.266h0a.267.267,0,0,1,.268.265h0v30.551A.267.267,0,0,1,1293.617,611.98Z"
              transform="translate(-550.7 1541.998)" fill="#121e5a"/>
        <rect id="Rectangle_11334" data-name="Rectangle 11334" width="6.173" height="70.41" rx="1.691"
              transform="translate(758.893 2074.497)" fill="#121e5a"/>
        <path id="Path_3987" data-name="Path 3987"
              d="M1327,560.91h0a.266.266,0,0,1-.268-.265V469.3a.266.266,0,0,1,.268-.265h0a.266.266,0,0,1,.268.265h0v91.343a.266.266,0,0,1-.267.265Z"
              transform="translate(-565.02 1594.608)" fill="#121e5a"/>
        <rect id="Rectangle_11335" data-name="Rectangle 11335" width="6.173" height="106.885" rx="1.691"
              transform="translate(777.957 2063.957)" fill="#121e5a"/>
        <path id="Path_3988" data-name="Path 3988"
              d="M1360.383,603.392h0a.266.266,0,0,1-.268-.264h0V450.992a.266.266,0,0,1,.267-.265h0a.266.266,0,0,1,.268.265V603.128a.266.266,0,0,1-.268.265Z"
              transform="translate(-579.339 1599.81)" fill="#121e5a"/>
        <rect id="Rectangle_11336" data-name="Rectangle 11336" width="6.173" height="33.935" rx="1.691"
              transform="translate(797.021 2075.45)" fill="#121e5a"/>
        <path id="Path_3989" data-name="Path 3989"
              d="M1393.766,522.824h0a.266.266,0,0,1-.267-.265V467.69a.266.266,0,0,1,.267-.265h0a.266.266,0,0,1,.268.265v54.868A.266.266,0,0,1,1393.766,522.824Z"
              transform="translate(-593.658 1597.331)" fill="#121e5a"/>
        <rect id="Rectangle_11337" data-name="Rectangle 11337" width="6.173" height="21.776" rx="1.691"
              transform="translate(816.085 2053.802)" fill="#121e5a"/>
        <path id="Path_3990" data-name="Path 3990"
              d="M1427.148,466.77h0a.266.266,0,0,1-.268-.264V423.8a.267.267,0,0,1,.268-.265h0a.267.267,0,0,1,.268.265v42.711A.267.267,0,0,1,1427.148,466.77Z"
              transform="translate(-607.977 1619.777)" fill="#121e5a"/>
        <rect id="Rectangle_11338" data-name="Rectangle 11338" width="6.173" height="46.093" rx="1.691"
              transform="translate(835.148 2018.353)" fill="#121e5a"/>
        <path id="Path_3991" data-name="Path 3991"
              d="M1460.527,422.338h0a.266.266,0,0,1-.268-.264h0V355.047a.266.266,0,0,1,.267-.265h0a.266.266,0,0,1,.268.265v67.027a.266.266,0,0,1-.267.265Z"
              transform="translate(-622.294 1653.304)" fill="#121e5a"/>
        <rect id="Rectangle_11339" data-name="Rectangle 11339" width="6.173" height="58.251" rx="1.691"
              transform="translate(854.212 2030.779)" fill="#121e5a"/>
        <path id="Path_3992" data-name="Path 3992"
              d="M1493.914,460.131h0a.266.266,0,0,1-.268-.265V380.681a.266.266,0,0,1,.268-.265h0a.267.267,0,0,1,.268.265v79.185A.266.266,0,0,1,1493.914,460.131Z"
              transform="translate(-636.615 1639.963)" fill="#121e5a"/>
        <rect id="Rectangle_11340" data-name="Rectangle 11340" width="6.173" height="21.776" rx="1.691"
              transform="translate(873.271 2064.406)" fill="#121e5a"/>
        <path id="Path_3993" data-name="Path 3993"
              d="M1527.3,469.115h0a.266.266,0,0,1-.267-.265h0V401.823a.267.267,0,0,1,.267-.265h0a.267.267,0,0,1,.269.265V468.85a.267.267,0,0,1-.269.265Z"
              transform="translate(-650.939 1629.814)" fill="#121e5a"/>
        <rect id="Rectangle_11341" data-name="Rectangle 11341" width="6.173" height="9.618" rx="1.691"
              transform="translate(896.282 2071.057)" fill="#121e5a"/>
        <path id="Path_3994" data-name="Path 3994"
              d="M1560.679,469.153h0a.267.267,0,0,1-.268-.266V414.02a.266.266,0,0,1,.267-.265h0a.266.266,0,0,1,.268.265h0v54.868A.267.267,0,0,1,1560.679,469.153Z"
              transform="translate(-661.31 1624.186)" fill="#121e5a"/>
        <rect id="Rectangle_11342" data-name="Rectangle 11342" width="6.173" height="33.935" rx="1.691"
              transform="translate(914.952 2073.837)" fill="#121e5a"/>
        <path id="Path_3995" data-name="Path 3995"
              d="M1594.065,531.359h0a.266.266,0,0,1-.268-.265h0V464.068a.266.266,0,0,1,.268-.265h0a.266.266,0,0,1,.267.265h0v67.026a.266.266,0,0,1-.267.265Z"
              transform="translate(-676.025 1598.556)" fill="#121e5a"/>
        <rect id="Rectangle_11343" data-name="Rectangle 11343" width="6.173" height="82.568" rx="1.691"
              transform="translate(933.621 2002.317)" fill="#121e5a"/>
        <path id="Path_3996" data-name="Path 3996"
              d="M1627.445,429.118h0a.266.266,0,0,1-.268-.265h0V325.35a.266.266,0,0,1,.268-.264h0a.266.266,0,0,1,.268.264h0v103.5A.267.267,0,0,1,1627.445,429.118Z"
              transform="translate(-690.736 1667.051)" fill="#121e5a"/>
        <rect id="Rectangle_11344" data-name="Rectangle 11344" width="6.173" height="58.251" rx="1.691"
              transform="translate(952.291 2015.113)" fill="#121e5a"/>
        <path id="Path_3997" data-name="Path 3997"
              d="M1660.828,428.822h0a.266.266,0,0,1-.269-.265h0V349.369a.267.267,0,0,1,.269-.265h0a.266.266,0,0,1,.267.264h0v79.188A.265.265,0,0,1,1660.828,428.822Z"
              transform="translate(-705.449 1655.747)" fill="#121e5a"/>
        <rect id="Rectangle_11345" data-name="Rectangle 11345" width="6.173" height="21.776" rx="1.691"
              transform="translate(970.961 2026.699)" fill="#121e5a"/>
        <path id="Path_3998" data-name="Path 3998"
              d="M1694.21,413.1h0a.267.267,0,0,1-.268-.265h0v-42.71a.267.267,0,0,1,.268-.265h0a.266.266,0,0,1,.268.265h0v42.71a.266.266,0,0,1-.268.265Z"
              transform="translate(-720.163 1646.543)" fill="#121e5a"/>
        <rect id="Rectangle_11346" data-name="Rectangle 11346" width="6.173" height="46.093" rx="1.691"
              transform="translate(989.63 1964.597)" fill="#121e5a"/>
        <path id="Path_3999" data-name="Path 3999"
              d="M1727.592,319.842h0a.267.267,0,0,1-.268-.265h0V252.551a.267.267,0,0,1,.268-.266h0a.268.268,0,0,1,.269.266v67.026A.268.268,0,0,1,1727.592,319.842Z"
              transform="translate(-734.875 1711.234)" fill="#121e5a"/>
        <rect id="Rectangle_11347" data-name="Rectangle 11347" width="6.173" height="106.885" rx="1.691"
              transform="translate(1008.3 1939.37)" fill="#121e5a"/>
        <path id="Path_4000" data-name="Path 4000"
              d="M1760.975,322.288h0a.266.266,0,0,1-.267-.265V145.571a.266.266,0,0,1,.267-.265h0a.267.267,0,0,1,.269.265h0V322.023a.267.267,0,0,1-.269.265Z"
              transform="translate(-749.589 1759.015)" fill="#121e5a"/>
        <rect id="Rectangle_11348" data-name="Rectangle 11348" width="6.173" height="70.41" rx="1.691"
              transform="translate(1026.97 1970.073)" fill="#121e5a"/>
        <path id="Path_4001" data-name="Path 4001"
              d="M1794.358,375.41h0a.267.267,0,0,1-.268-.265V259.484a.266.266,0,0,1,.267-.265h0a.266.266,0,0,1,.267.265h0V375.145a.266.266,0,0,1-.267.265Z"
              transform="translate(-764.302 1700.241)" fill="#121e5a"/>
        <rect id="Rectangle_11349" data-name="Rectangle 11349" width="6.173" height="21.777" rx="1.691"
              transform="translate(1045.639 1935.776)" fill="#121e5a"/>
        <path id="Path_4002" data-name="Path 4002"
              d="M1827.741,226h0a.266.266,0,0,1-.268-.265h0V183.021a.266.266,0,0,1,.268-.265h0a.267.267,0,0,1,.268.265v42.711A.266.266,0,0,1,1827.741,226Z"
              transform="translate(-779.015 1742.288)" fill="#121e5a"/>
        <rect id="Rectangle_11350" data-name="Rectangle 11350" width="6.173" height="9.618" rx="1.691"
              transform="translate(1064.309 1922.05)" fill="#121e5a"/>
        <path id="Path_4003" data-name="Path 4003"
              d="M1861.124,179.22h0a.266.266,0,0,1-.268-.264h0v-42.71a.267.267,0,0,1,.268-.265h0a.266.266,0,0,1,.268.265h0v42.71a.266.266,0,0,1-.268.264Z"
              transform="translate(-793.729 1763.18)" fill="#121e5a"/>
    </g>
</svg>
