<svg xmlns="http://www.w3.org/2000/svg" xmlns:xlink="http://www.w3.org/1999/xlink" width="1920" height="808.971" viewBox="0 0 1920 808.971"><defs><style>.a{opacity:0.53;}.b{fill:url(#a);}.c{fill:url(#b);}.d{fill:url(#c);}.e{fill:url(#d);}.f{fill:url(#e);}.g{fill:url(#f);}.h{fill:url(#g);}.i{fill:url(#h);}.j{fill:url(#i);}.k{fill:url(#j);}.l{fill:url(#k);}.m{fill:url(#l);}.n{fill:url(#m);}.o{fill:url(#n);}.p{fill:url(#o);}.q{fill:url(#p);}.r{fill:url(#q);}.s{fill:url(#r);}.t{fill:url(#s);}.u{fill:url(#t);}.v{fill:url(#u);}.w{fill:url(#v);}.x{fill:url(#w);}.y{fill:url(#x);}.z{fill:url(#y);}.aa{fill:url(#z);}.ab{fill:url(#aa);}.ac{fill:url(#ab);}.ad{fill:url(#ac);}.ae{fill:url(#ad);}.af{fill:url(#ae);}.ag{fill:url(#af);}.ah{fill:url(#ag);}.ai{fill:url(#ah);}.aj{fill:url(#ai);}.ak{fill:url(#aj);}.al{fill:url(#ak);}.am{fill:url(#al);}.an{fill:url(#am);}.ao{fill:url(#an);}.ap{fill:url(#ao);}.aq{fill:url(#ap);}.ar{fill:url(#aq);}.as{fill:url(#ar);}.at{fill:url(#as);}.au{fill:url(#at);}.av{fill:url(#au);}.aw{fill:url(#av);}.ax{fill:url(#aw);}.ay{fill:url(#ax);}.az{fill:url(#ay);}.ba{fill:url(#az);}.bb{fill:url(#ba);}.bc{fill:url(#bb);}.bd{fill:url(#bc);}.be{fill:url(#bd);}.bf{fill:url(#be);}.bg{fill:url(#bf);}.bh{fill:url(#bg);}.bi{fill:url(#bh);}.bj{fill:url(#bi);}.bk{fill:url(#bj);}.bl{fill:url(#bk);}.bm{fill:url(#bl);}.bn{fill:url(#bm);}.bo{fill:url(#bn);}.bp{fill:url(#bo);}.bq{fill:url(#bp);}.br{fill:url(#bq);}.bs{fill:url(#br);}.bt{fill:url(#bs);}.bu{fill:url(#bt);}.bv{fill:url(#bu);}.bw{fill:url(#bv);}.bx{fill:url(#bw);}.by{fill:url(#bx);}.bz{fill:url(#by);}.ca{fill:url(#bz);}.cb{fill:url(#ca);}.cc{fill:url(#cb);}.cd{fill:url(#cc);}.ce{fill:url(#cd);}.cf{fill:url(#ce);}.cg{fill:url(#cf);}.ch{fill:url(#cg);}.ci{fill:url(#ch);}.cj{fill:url(#ci);}.ck{fill:url(#cj);}.cl{fill:url(#ck);}.cm{fill:url(#cl);}.cn{fill:url(#cm);}.co{fill:url(#cn);}.cp{fill:url(#co);}.cq{fill:url(#cp);}.cr{fill:url(#cq);}.cs{fill:url(#cr);}.ct{fill:url(#cs);}.cu{fill:url(#ct);}.cv{fill:url(#cu);}.cw{fill:url(#cv);}.cx{fill:url(#cw);}.cy{fill:url(#cx);}.cz{fill:url(#cy);}.da{fill:url(#cz);}.db{fill:url(#da);}.dc{fill:url(#db);}.dd{fill:url(#dc);}.de{fill:url(#dd);}.df{fill:url(#de);}.dg{fill:url(#df);}.dh{fill:url(#dg);}.di{fill:url(#dh);}.dj{fill:url(#di);}.dk{fill:url(#dj);}</style><linearGradient id="a" x1="137.835" y1="30.711" x2="137.835" y2="30.703" gradientUnits="objectBoundingBox"><stop offset="0" stop-color="#1a4ffc"/><stop offset="1" stop-color="#072481"/></linearGradient><linearGradient id="b" x1="87.733" y1="22.528" x2="87.733" y2="22.522" xlink:href="#a"/><linearGradient id="c" x1="140.89" y1="51.534" x2="140.89" y2="51.52" xlink:href="#a"/><linearGradient id="d" x1="126.665" y1="31.591" x2="126.665" y2="31.582" xlink:href="#a"/><linearGradient id="e" x1="134.78" y1="39.151" x2="134.78" y2="39.141" xlink:href="#a"/><linearGradient id="f" x1="47.414" y1="26.787" x2="47.414" y2="26.78" xlink:href="#a"/><linearGradient id="g" x1="131.724" y1="38.591" x2="131.724" y2="38.58" xlink:href="#a"/><linearGradient id="h" x1="9.875" y1="26.404" x2="9.875" y2="26.397" xlink:href="#a"/><linearGradient id="i" x1="128.669" y1="52.808" x2="128.669" y2="52.794" xlink:href="#a"/><linearGradient id="j" x1="-29.097" y1="32.371" x2="-29.097" y2="32.362" xlink:href="#a"/><linearGradient id="k" x1="125.614" y1="30.84" x2="125.614" y2="30.832" xlink:href="#a"/><linearGradient id="l" x1="-69.566" y1="17.545" x2="-69.566" y2="17.541" xlink:href="#a"/><linearGradient id="m" x1="122.558" y1="52.08" x2="122.558" y2="52.066" xlink:href="#a"/><linearGradient id="n" x1="-107.046" y1="31.925" x2="-107.046" y2="31.916" xlink:href="#a"/><linearGradient id="o" x1="119.503" y1="52.15" x2="119.503" y2="52.135" xlink:href="#a"/><linearGradient id="p" x1="-146.017" y1="22.159" x2="-146.017" y2="22.152" xlink:href="#a"/><linearGradient id="q" x1="116.448" y1="81.65" x2="116.448" y2="81.628" xlink:href="#a"/><linearGradient id="r" x1="-186.742" y1="40.931" x2="-186.742" y2="40.92" xlink:href="#a"/><linearGradient id="s" x1="113.393" y1="82.248" x2="113.393" y2="82.225" xlink:href="#a"/><linearGradient id="t" x1="-223.729" y1="32.327" x2="-223.729" y2="32.318" xlink:href="#a"/><linearGradient id="u" x1="110.338" y1="39.246" x2="110.338" y2="39.236" xlink:href="#a"/><linearGradient id="v" x1="-262.657" y1="22.885" x2="-262.657" y2="22.879" xlink:href="#a"/><linearGradient id="w" x1="107.282" y1="22.071" x2="107.282" y2="22.065" xlink:href="#a"/><linearGradient id="x" x1="-303.76" y1="15.751" x2="-303.76" y2="15.747" xlink:href="#a"/><linearGradient id="y" x1="104.227" y1="39.232" x2="104.227" y2="39.221" xlink:href="#a"/><linearGradient id="z" x1="-340.509" y1="26.841" x2="-340.509" y2="26.834" xlink:href="#a"/><linearGradient id="aa" x1="101.172" y1="52.696" x2="101.172" y2="52.681" xlink:href="#a"/><linearGradient id="ab" x1="-379.845" y1="22.391" x2="-379.845" y2="22.385" xlink:href="#a"/><linearGradient id="ac" x1="98.116" y1="82.388" x2="98.116" y2="82.366" xlink:href="#a"/><linearGradient id="ad" x1="-420.825" y1="41.306" x2="-420.825" y2="41.295" xlink:href="#a"/><linearGradient id="ae" x1="95.061" y1="191.492" x2="95.061" y2="191.441" xlink:href="#a"/><linearGradient id="af" x1="-457.792" y1="57.687" x2="-457.792" y2="57.671" xlink:href="#a"/><linearGradient id="ag" x1="92.006" y1="53.957" x2="92.006" y2="53.942" xlink:href="#a"/><linearGradient id="ah" x1="-496.766" y1="27.263" x2="-496.766" y2="27.256" xlink:href="#a"/><linearGradient id="ai" x1="88.951" y1="40.063" x2="88.951" y2="40.052" xlink:href="#a"/><linearGradient id="aj" x1="-537.852" y1="27.409" x2="-537.852" y2="27.402" xlink:href="#a"/><linearGradient id="ak" x1="85.895" y1="22.708" x2="85.895" y2="22.702" xlink:href="#a"/><linearGradient id="al" x1="-574.139" y1="18.106" x2="-574.139" y2="18.101" xlink:href="#a"/><linearGradient id="am" x1="82.84" y1="55.138" x2="82.84" y2="55.123" xlink:href="#a"/><linearGradient id="an" x1="-613.071" y1="23.585" x2="-613.071" y2="23.579" xlink:href="#a"/><linearGradient id="ao" x1="79.785" y1="204.892" x2="79.785" y2="204.841" xlink:href="#a"/><linearGradient id="ap" x1="-654.938" y1="61.851" x2="-654.938" y2="61.835" xlink:href="#a"/><linearGradient id="aq" x1="76.73" y1="50.66" x2="76.73" y2="50.647" xlink:href="#a"/><linearGradient id="ar" x1="-691.645" y1="34.599" x2="-691.645" y2="34.59" xlink:href="#a"/><linearGradient id="as" x1="73.674" y1="27.617" x2="73.674" y2="27.61" xlink:href="#a"/><linearGradient id="at" x1="-730.617" y1="21.252" x2="-730.617" y2="21.247" xlink:href="#a"/><linearGradient id="au" x1="70.619" y1="17.925" x2="70.619" y2="17.921" xlink:href="#a"/><linearGradient id="av" x1="-771.153" y1="11.075" x2="-771.153" y2="11.072" xlink:href="#a"/><linearGradient id="aw" x1="67.564" y1="87.26" x2="67.564" y2="87.237" xlink:href="#a"/><linearGradient id="ax" x1="-808.564" y1="43.761" x2="-808.564" y2="43.75" xlink:href="#a"/><linearGradient id="ay" x1="64.508" y1="41.082" x2="64.508" y2="41.071" xlink:href="#a"/><linearGradient id="az" x1="-847.537" y1="28.104" x2="-847.537" y2="28.097" xlink:href="#a"/><linearGradient id="ba" x1="61.453" y1="202.975" x2="61.453" y2="202.924" xlink:href="#a"/><linearGradient id="bb" x1="-888.991" y1="61.255" x2="-888.991" y2="61.239" xlink:href="#a"/><linearGradient id="bc" x1="58.398" y1="41.418" x2="58.398" y2="41.407" xlink:href="#a"/><linearGradient id="bd" x1="-924.492" y1="24.141" x2="-924.492" y2="24.135" xlink:href="#a"/><linearGradient id="be" x1="55.343" y1="23.307" x2="55.343" y2="23.301" xlink:href="#a"/><linearGradient id="bf" x1="-963.474" y1="18.582" x2="-963.474" y2="18.577" xlink:href="#a"/><linearGradient id="bg" x1="52.287" y1="17.889" x2="52.287" y2="17.884" xlink:href="#a"/><linearGradient id="bh" x1="-1006.041" y1="12.579" x2="-1006.041" y2="12.576" xlink:href="#a"/><linearGradient id="bi" x1="49.232" y1="55.829" x2="49.232" y2="55.815" xlink:href="#a"/><linearGradient id="bj" x1="-1042.405" y1="34.222" x2="-1042.405" y2="34.213" xlink:href="#a"/><linearGradient id="bk" x1="46.177" y1="199.652" x2="46.177" y2="199.601" xlink:href="#a"/><linearGradient id="bl" x1="-1081.378" y1="60.222" x2="-1081.378" y2="60.206" xlink:href="#a"/><linearGradient id="bm" x1="43.121" y1="84.768" x2="43.121" y2="84.746" xlink:href="#a"/><linearGradient id="bn" x1="-1123.093" y1="42.504" x2="-1123.093" y2="42.492" xlink:href="#a"/><linearGradient id="bo" x1="40.066" y1="39.902" x2="40.066" y2="39.891" xlink:href="#a"/><linearGradient id="bp" x1="-1158.144" y1="20.171" x2="-1158.144" y2="20.166" xlink:href="#a"/><linearGradient id="bq" x1="37.011" y1="31.266" x2="37.011" y2="31.258" xlink:href="#a"/><linearGradient id="br" x1="-1198.298" y1="22.934" x2="-1198.298" y2="22.928" xlink:href="#a"/><linearGradient id="bs" x1="33.956" y1="26.574" x2="33.956" y2="26.567" xlink:href="#a"/><linearGradient id="bt" x1="-1240.402" y1="20.453" x2="-1240.402" y2="20.447" xlink:href="#a"/><linearGradient id="bu" x1="30.9" y1="85.333" x2="30.9" y2="85.311" xlink:href="#a"/><linearGradient id="bv" x1="-1276.245" y1="27.466" x2="-1276.245" y2="27.458" xlink:href="#a"/><linearGradient id="bw" x1="27.845" y1="54.919" x2="27.845" y2="54.905" xlink:href="#a"/><linearGradient id="bx" x1="-1313.877" y1="33.666" x2="-1313.877" y2="33.657" xlink:href="#a"/><linearGradient id="by" x1="24.79" y1="201.452" x2="24.79" y2="201.401" xlink:href="#a"/><linearGradient id="bz" x1="-1352.811" y1="60.781" x2="-1352.811" y2="60.766" xlink:href="#a"/><linearGradient id="ca" x1="21.735" y1="27.348" x2="21.735" y2="27.341" xlink:href="#a"/><linearGradient id="cb" x1="-1393.342" y1="21.046" x2="-1393.342" y2="21.041" xlink:href="#a"/><linearGradient id="cc" x1="18.679" y1="18.073" x2="18.679" y2="18.068" xlink:href="#a"/><linearGradient id="cd" x1="-1432.138" y1="12.708" x2="-1432.138" y2="12.705" xlink:href="#a"/><linearGradient id="ce" x1="15.624" y1="57.137" x2="15.624" y2="57.122" xlink:href="#a"/><linearGradient id="cf" x1="-1474.534" y1="35.025" x2="-1474.534" y2="35.016" xlink:href="#a"/><linearGradient id="cg" x1="12.569" y1="90.77" x2="12.569" y2="90.747" xlink:href="#a"/><linearGradient id="ch" x1="-1508.546" y1="45.53" x2="-1508.546" y2="45.518" xlink:href="#a"/><linearGradient id="ci" x1="9.514" y1="43.278" x2="9.514" y2="43.267" xlink:href="#a"/><linearGradient id="cj" x1="-1549.053" y1="29.604" x2="-1549.053" y2="29.597" xlink:href="#a"/><linearGradient id="ck" x1="6.458" y1="33.938" x2="6.458" y2="33.93" xlink:href="#a"/><linearGradient id="cl" x1="-1591.397" y1="24.887" x2="-1591.397" y2="24.881" xlink:href="#a"/><linearGradient id="cm" x1="3.403" y1="90.213" x2="3.403" y2="90.191" xlink:href="#a"/><linearGradient id="cn" x1="-1627.005" y1="29.221" x2="-1627.005" y2="29.214" xlink:href="#a"/><linearGradient id="co" x1="0.348" y1="208.493" x2="0.348" y2="208.442" xlink:href="#a"/><linearGradient id="cp" x1="-1665.874" y1="35.56" x2="-1665.874" y2="35.551" xlink:href="#a"/><linearGradient id="cq" x1="-2.708" y1="57.196" x2="-2.708" y2="57.181" xlink:href="#a"/><linearGradient id="cr" x1="-1708.244" y1="28.712" x2="-1708.244" y2="28.704" xlink:href="#a"/><linearGradient id="cs" x1="-5.763" y1="24.264" x2="-5.763" y2="24.258" xlink:href="#a"/><linearGradient id="ct" x1="-1740.188" y1="19.341" x2="-1740.188" y2="19.337" xlink:href="#a"/><linearGradient id="cu" x1="-8.818" y1="34.235" x2="-8.818" y2="34.227" xlink:href="#a"/><linearGradient id="cv" x1="-1783" y1="25.104" x2="-1783" y2="25.098" xlink:href="#a"/><linearGradient id="cw" x1="-11.873" y1="92.13" x2="-11.873" y2="92.107" xlink:href="#a"/><linearGradient id="cx" x1="-1823.221" y1="46.216" x2="-1823.221" y2="46.204" xlink:href="#a"/><linearGradient id="cy" x1="-14.929" y1="44.507" x2="-14.929" y2="44.496" xlink:href="#a"/><linearGradient id="cz" x1="-1858.636" y1="30.442" x2="-1858.636" y2="30.435" xlink:href="#a"/><linearGradient id="da" x1="-17.984" y1="19.426" x2="-17.984" y2="19.421" xlink:href="#a"/><linearGradient id="db" x1="-1897.777" y1="11.913" x2="-1897.777" y2="11.91" xlink:href="#a"/><linearGradient id="dc" x1="-21.039" y1="28.995" x2="-21.039" y2="28.988" xlink:href="#a"/><linearGradient id="dd" x1="-1938.685" y1="17.624" x2="-1938.685" y2="17.62" xlink:href="#a"/><linearGradient id="de" x1="-24.094" y1="96.868" x2="-24.094" y2="96.846" xlink:href="#a"/><linearGradient id="df" x1="-1977.449" y1="48.607" x2="-1977.449" y2="48.595" xlink:href="#a"/><linearGradient id="dg" x1="-27.15" y1="225.627" x2="-27.15" y2="225.576" xlink:href="#a"/><linearGradient id="dh" x1="-2016.632" y1="49.204" x2="-2016.632" y2="49.193" xlink:href="#a"/><linearGradient id="di" x1="-30.205" y1="62.478" x2="-30.205" y2="62.464" xlink:href="#a"/><linearGradient id="dj" x1="-2053.301" y1="38.299" x2="-2053.301" y2="38.29" xlink:href="#a"/></defs><g class="a" transform="translate(-19.763 -135.98)"><g transform="translate(53.145 747.595)"><rect class="b" width="11.039" height="105.269" rx="1.691" transform="translate(0 19.393)"/><path class="c" d="M58.665,864.571h0a.481.481,0,0,1-.48-.48v-143.1a.48.48,0,0,1,.48-.478h0a.479.479,0,0,1,.479.478v143.1A.481.481,0,0,1,58.665,864.571Z" transform="translate(-53.145 -720.514)"/></g><g transform="translate(19.763 838.706)"><rect class="d" width="11.039" height="61.325" rx="1.691" transform="translate(0 19.394)"/><path class="e" d="M25.282,911.737h0a.479.479,0,0,1-.479-.479V812.1a.479.479,0,0,1,.479-.479h0a.48.48,0,0,1,.48.479v99.158A.48.48,0,0,1,25.282,911.737Z" transform="translate(-19.763 -811.625)"/></g><g transform="translate(86.528 726.062)"><rect class="f" width="11.039" height="83.297" rx="1.691" transform="translate(0 19.394)"/><path class="g" d="M92.048,821.065h0a.478.478,0,0,1-.479-.478V699.46a.479.479,0,0,1,.479-.479h0a.479.479,0,0,1,.478.479V820.587A.478.478,0,0,1,92.048,821.065Z" transform="translate(-86.528 -698.981)"/></g><g transform="translate(119.911 772.838)"><rect class="h" width="11.039" height="83.297" rx="1.691" transform="translate(0 19.394)"/><path class="i" d="M125.43,867.841h0a.478.478,0,0,1-.478-.478V746.236a.479.479,0,0,1,.478-.479h0a.48.48,0,0,1,.48.479V867.363A.48.48,0,0,1,125.43,867.841Z" transform="translate(-119.911 -745.757)"/></g><g transform="translate(153.294 760.435)"><rect class="j" width="11.039" height="61.325" rx="1.691" transform="translate(0 19.395)"/><path class="k" d="M158.813,833.468h0a.479.479,0,0,1-.479-.479V733.834a.48.48,0,0,1,.479-.48h0a.481.481,0,0,1,.479.48v99.155A.479.479,0,0,1,158.813,833.468Z" transform="translate(-153.294 -733.354)"/></g><g transform="translate(186.677 690.028)"><rect class="l" width="11.039" height="105.269" rx="1.691" transform="translate(0 63.339)"/><path class="m" d="M192.2,850.947h0a.479.479,0,0,1-.479-.478V663.426a.48.48,0,0,1,.479-.479h0a.48.48,0,0,1,.479.479V850.469A.479.479,0,0,1,192.2,850.947Z" transform="translate(-186.677 -662.947)"/></g><g transform="translate(220.059 805.161)"><rect class="n" width="11.039" height="61.325" rx="1.691" transform="translate(0 19.394)"/><path class="o" d="M225.579,878.193h0a.478.478,0,0,1-.479-.479h0V778.559a.478.478,0,0,1,.479-.479h0a.479.479,0,0,1,.479.478h0v99.154a.478.478,0,0,1-.477.48Z" transform="translate(-220.059 -778.08)"/></g><g transform="translate(253.442 800.893)"><rect class="p" width="11.039" height="61.325" rx="1.691" transform="translate(0 19.394)"/><path class="q" d="M258.962,917.87h0a.48.48,0,0,1-.48-.48h0v-143.1a.479.479,0,0,1,.479-.479h0a.479.479,0,0,1,.478.479v143.1A.48.48,0,0,1,258.962,917.87Z" transform="translate(-253.442 -773.812)"/></g><g transform="translate(286.825 810.464)"><rect class="r" width="11.039" height="39.353" rx="1.691" transform="translate(0 19.394)"/><path class="s" d="M292.344,861.524h0a.478.478,0,0,1-.478-.479h0V783.862a.478.478,0,0,1,.478-.479h0a.478.478,0,0,1,.479.479v77.183a.478.478,0,0,1-.478.479Z" transform="translate(-286.825 -783.383)"/></g><g transform="translate(320.208 764.909)"><rect class="t" width="11.039" height="39.353" rx="1.691" transform="translate(0 41.365)"/><path class="u" d="M325.727,837.941h0a.48.48,0,0,1-.479-.479h0V738.306a.479.479,0,0,1,.479-.478h0a.479.479,0,0,1,.48.478h0v99.155a.48.48,0,0,1-.478.48Z" transform="translate(-320.208 -737.828)"/></g><g transform="translate(353.591 696.16)"><rect class="v" width="11.039" height="83.297" rx="1.691" transform="translate(0 41.366)"/><path class="w" d="M359.11,813.136h0a.479.479,0,0,1-.48-.479h0v-143.1a.479.479,0,0,1,.479-.479h0a.479.479,0,0,1,.479.479v143.1A.48.48,0,0,1,359.11,813.136Z" transform="translate(-353.591 -669.079)"/></g><g transform="translate(394.737 679.696)"><rect class="x" width="11.039" height="149.212" rx="1.691" transform="translate(0 19.394)"/><path class="y" d="M392.493,862.588h0a.478.478,0,0,1-.479-.479V653.095a.478.478,0,0,1,.478-.48h0a.478.478,0,0,1,.478.479h0V862.109A.478.478,0,0,1,392.493,862.588Z" transform="translate(-386.973 -652.615)"/></g><g transform="translate(428.826 719.353)"><rect class="z" width="11.039" height="83.297" rx="1.691" transform="translate(0 19.394)"/><path class="aa" d="M425.871,814.359h0a.479.479,0,0,1-.479-.479V692.751a.48.48,0,0,1,.479-.479h0a.481.481,0,0,1,.48.479V813.879a.48.48,0,0,1-.48.48Z" transform="translate(-420.356 -692.272)"/></g><g transform="translate(462.914 767.349)"><rect class="ab" width="11.039" height="61.325" rx="1.691" transform="translate(0 19.394)"/><path class="ac" d="M459.258,884.326h0a.48.48,0,0,1-.479-.479v-143.1a.479.479,0,0,1,.479-.48h0a.479.479,0,0,1,.479.479h0v143.1A.479.479,0,0,1,459.258,884.326Z" transform="translate(-453.739 -740.268)"/></g><g transform="translate(497.003 781.397)"><rect class="ad" width="11.039" height="39.352" rx="1.691" transform="translate(0 19.389)"/><path class="ae" d="M492.639,832.451h0a.478.478,0,0,1-.478-.478V754.794a.478.478,0,0,1,.478-.478h0a.478.478,0,0,1,.479.478v77.183A.478.478,0,0,1,492.639,832.451Z" transform="translate(-487.122 -754.316)"/></g><g transform="translate(531.092 782.223)"><rect class="af" width="11.039" height="17.381" rx="1.691" transform="translate(0 19.394)"/><path class="ag" d="M526.024,811.31h0a.478.478,0,0,1-.479-.478V755.621a.478.478,0,0,1,.479-.479h0a.479.479,0,0,1,.479.479v55.211A.479.479,0,0,1,526.024,811.31Z" transform="translate(-520.504 -755.142)"/></g><g transform="translate(565.18 661.56)"><rect class="ah" width="11.039" height="61.325" rx="1.691" transform="translate(0 41.366)"/><path class="ai" d="M559.407,762.923h0a.479.479,0,0,1-.479-.479V641.318a.48.48,0,0,1,.479-.479h0a.478.478,0,0,1,.479.479h0V762.444a.479.479,0,0,1-.478.479Z" transform="translate(-553.887 -640.839)"/></g><g transform="translate(599.269 642.936)"><rect class="aj" width="11.039" height="83.297" rx="1.691" transform="translate(0 19.393)"/><path class="ak" d="M592.789,745.033h0a.479.479,0,0,1-.478-.479V623.427a.478.478,0,0,1,.478-.478h0a.478.478,0,0,1,.479.478V744.554A.479.479,0,0,1,592.789,745.033Z" transform="translate(-587.27 -622.949)"/></g><g transform="translate(633.357 576.692)"><rect class="al" width="11.039" height="149.212" rx="1.691" transform="translate(0 19.394)"/><path class="am" d="M626.172,745.472h0a.479.479,0,0,1-.479-.479V557.951a.479.479,0,0,1,.479-.479h0a.48.48,0,0,1,.48.479V744.993A.48.48,0,0,1,626.172,745.472Z" transform="translate(-620.653 -557.472)"/></g><g transform="translate(667.446 586.615)"><rect class="an" width="11.039" height="61.325" rx="1.691" transform="translate(0 41.366)"/><path class="ao" d="M659.555,712.317h0a.481.481,0,0,1-.48-.48v-143.1a.48.48,0,0,1,.48-.479h0a.48.48,0,0,1,.479.479h0v143.1A.48.48,0,0,1,659.555,712.317Z" transform="translate(-654.036 -568.262)"/></g><g transform="translate(701.534 535.06)"><rect class="ap" width="11.039" height="17.381" rx="1.691" transform="translate(0 19.394)"/><path class="aq" d="M692.938,576.873h0a.478.478,0,0,1-.479-.479V521.183a.479.479,0,0,1,.479-.479h0a.479.479,0,0,1,.478.479h0V576.4A.478.478,0,0,1,692.938,576.873Z" transform="translate(-687.418 -520.704)"/></g><g transform="translate(735.623 503.555)"><rect class="ar" width="11.039" height="68.704" rx="1.691" transform="translate(0 16.001)"/><path class="as" d="M726.32,590.2h0a.442.442,0,0,1-.478-.395V489.9a.444.444,0,0,1,.478-.4h0a.444.444,0,0,1,.48.4v99.908A.443.443,0,0,1,726.32,590.2Z" transform="translate(-720.801 -489.5)"/></g><g transform="translate(769.712 447.857)"><rect class="at" width="11.039" height="127.241" rx="1.691" transform="translate(0 19.394)"/><path class="au" d="M759.7,600.75h0a.479.479,0,0,1-.479-.478h0V435.2a.479.479,0,0,1,.478-.479h0a.479.479,0,0,1,.479.479h0V600.271a.479.479,0,0,1-.479.479Z" transform="translate(-754.184 -434.721)"/></g><g transform="translate(803.8 429.541)"><rect class="av" width="11.039" height="193.157" rx="1.691" transform="translate(0 85.308)"/><path class="aw" d="M793.086,733.12h0a.481.481,0,0,1-.479-.48V413.767a.48.48,0,0,1,.479-.479h0a.479.479,0,0,1,.479.479V732.64A.48.48,0,0,1,793.086,733.12Z" transform="translate(-787.567 -413.288)"/></g><g transform="translate(837.889 578.386)"><rect class="ax" width="11.039" height="39.353" rx="1.691" transform="translate(0 19.394)"/><path class="ay" d="M826.469,640.133h0a.478.478,0,0,1-.479-.478V562.472a.478.478,0,0,1,.479-.479h0a.478.478,0,0,1,.479.478h0v77.183A.478.478,0,0,1,826.469,640.133Z" transform="translate(-820.95 -561.993)"/></g><g transform="translate(871.977 554.469)"><rect class="az" width="11.039" height="83.297" rx="3.558" transform="translate(0 19.395)"/><path class="ba" d="M859.852,660.055h0a.48.48,0,0,1-.48-.478h0V538.449a.48.48,0,0,1,.48-.479h0a.479.479,0,0,1,.478.479V659.576a.479.479,0,0,1-.478.479Z" transform="translate(-854.332 -537.97)"/></g><g transform="translate(906.066 569.857)"><rect class="bb" width="11.039" height="17.381" rx="1.691" transform="translate(0 19.394)"/><path class="bc" d="M893.234,610.418h0a.478.478,0,0,1-.478-.479V554.728a.479.479,0,0,1,.478-.479h0a.479.479,0,0,1,.479.479h0v55.211A.478.478,0,0,1,893.234,610.418Z" transform="translate(-887.715 -554.249)"/></g><g transform="translate(940.155 502.885)"><rect class="bd" width="11.039" height="83.297" rx="1.691" transform="translate(0 41.367)"/><path class="be" d="M926.617,632h0a.48.48,0,0,1-.479-.479v-143.1a.48.48,0,0,1,.478-.48h0a.48.48,0,0,1,.48.48v143.1A.481.481,0,0,1,926.617,632Z" transform="translate(-921.098 -487.942)"/></g><g transform="translate(974.243 483.162)"><rect class="bf" width="11.039" height="149.212" rx="1.691" transform="translate(0 19.394)"/><path class="bg" d="M960,656.021h0a.48.48,0,0,1-.48-.478h0V468.5a.479.479,0,0,1,.479-.479h0a.479.479,0,0,1,.479.479h0V655.544A.479.479,0,0,1,960,656.021Z" transform="translate(-954.481 -468.021)"/></g><g transform="translate(1008.332 505.072)"><rect class="bh" width="11.039" height="193.157" rx="1.691" transform="translate(0 19.394)"/><path class="bi" d="M993.383,762.211h0a.48.48,0,0,1-.479-.48V486.8a.478.478,0,0,1,.479-.478h0a.478.478,0,0,1,.478.478h0V761.731A.48.48,0,0,1,993.383,762.211Z" transform="translate(-987.863 -486.322)"/></g><g transform="translate(1042.42 564.1)"><rect class="bj" width="11.039" height="61.325" rx="1.691" transform="translate(0 19.395)"/><path class="bk" d="M1026.766,647.861h0a.479.479,0,0,1-.479-.479V548.224a.48.48,0,0,1,.479-.48h0a.48.48,0,0,1,.479.48v99.155a.48.48,0,0,1-.477.482Z" transform="translate(-1021.246 -547.744)"/></g><g transform="translate(1076.509 630.169)"><rect class="bl" width="11.039" height="17.381" rx="1.691" transform="translate(0 19.394)"/><path class="bm" d="M1060.149,668.56h0a.48.48,0,0,1-.479-.479V612.87a.479.479,0,0,1,.479-.479h0a.479.479,0,0,1,.479.479v55.212A.48.48,0,0,1,1060.149,668.56Z" transform="translate(-1054.629 -612.391)"/></g><g transform="translate(1110.598 680.568)"><rect class="bn" width="11.039" height="39.352" rx="1.691" transform="translate(0 19.394)"/><path class="bo" d="M1093.531,738.528h0a.478.478,0,0,1-.478-.479V660.867a.477.477,0,0,1,.477-.479h0a.478.478,0,0,1,.479.479h0V738.05A.479.479,0,0,1,1093.531,738.528Z" transform="translate(-1088.012 -660.388)"/></g><g transform="translate(1144.686 635.431)"><rect class="bp" width="11.039" height="83.297" rx="1.691" transform="translate(0 41.366)"/><path class="bq" d="M1126.914,780.423h0a.479.479,0,0,1-.479-.48V614.873a.479.479,0,0,1,.479-.479h0a.48.48,0,0,1,.48.479V779.947A.481.481,0,0,1,1126.914,780.423Z" transform="translate(-1121.395 -614.394)"/></g><g transform="translate(1178.775 689.08)"><rect class="br" width="11.039" height="105.269" rx="1.691" transform="translate(0 19.395)"/><path class="bs" d="M1160.3,806.057h0a.479.479,0,0,1-.48-.479v-143.1a.481.481,0,0,1,.48-.48h0a.48.48,0,0,1,.478.48v143.1A.478.478,0,0,1,1160.3,806.057Z" transform="translate(-1154.777 -661.999)"/></g><g transform="translate(1212.863 586.598)"><rect class="bt" width="11.039" height="127.241" rx="1.691" transform="translate(0 19.394)"/><path class="bu" d="M1193.68,733.646h0a.478.478,0,0,1-.479-.479V568.1a.478.478,0,0,1,.479-.479h0a.478.478,0,0,1,.478.479v165.07A.478.478,0,0,1,1193.68,733.646Z" transform="translate(-1188.16 -567.618)"/></g><g transform="translate(1246.952 635.758)"><rect class="bv" width="11.039" height="39.353" rx="1.691" transform="translate(0 41.366)"/><path class="bw" d="M1227.062,738.138h0a.478.478,0,0,1-.478-.479V616.533a.479.479,0,0,1,.478-.479h0a.48.48,0,0,1,.48.479V737.659A.48.48,0,0,1,1227.062,738.138Z" transform="translate(-1221.543 -616.054)"/></g><g transform="translate(1281.041 622.228)"><rect class="bx" width="11.039" height="61.325" rx="1.691" transform="translate(0 19.394)"/><path class="by" d="M1260.445,703.764h0a.48.48,0,0,1-.48-.479h0V604.131a.479.479,0,0,1,.479-.479h0a.479.479,0,0,1,.479.479v99.154A.48.48,0,0,1,1260.445,703.764Z" transform="translate(-1254.926 -603.652)"/></g><g transform="translate(1315.129 597.5)"><rect class="bz" width="11.039" height="17.381" rx="1.691" transform="translate(0 19.394)"/><path class="ca" d="M1293.828,637.067h0a.48.48,0,0,1-.48-.479v-55.21a.48.48,0,0,1,.48-.48h0a.48.48,0,0,1,.479.479h0v55.21A.48.48,0,0,1,1293.828,637.067Z" transform="translate(-1288.308 -580.898)"/></g><g transform="translate(1349.218 483.682)"><rect class="cb" width="11.039" height="127.241" rx="1.691" transform="translate(0 19.394)"/><path class="cc" d="M1327.211,635.065h0a.478.478,0,0,1-.479-.479V469.516a.478.478,0,0,1,.479-.479h0a.478.478,0,0,1,.479.478h0v165.07a.478.478,0,0,1-.478.479Z" transform="translate(-1321.691 -469.037)"/></g><g transform="translate(1383.306 467.572)"><rect class="cd" width="11.039" height="193.157" rx="1.691" transform="translate(0 19.394)"/><path class="ce" d="M1360.594,726.615h0a.477.477,0,0,1-.479-.477h0V451.206a.478.478,0,0,1,.478-.479h0a.478.478,0,0,1,.479.479V726.137a.478.478,0,0,1-.479.478Z" transform="translate(-1355.074 -450.727)"/></g><g transform="translate(1417.395 480.59)"><rect class="cf" width="11.039" height="61.325" rx="1.691" transform="translate(0 19.394)"/><path class="cg" d="M1393.976,567.538h0a.478.478,0,0,1-.478-.479V467.9a.478.478,0,0,1,.478-.479h0a.478.478,0,0,1,.479.479v99.155A.478.478,0,0,1,1393.976,567.538Z" transform="translate(-1388.457 -467.425)"/></g><g transform="translate(1451.484 434.595)"><rect class="ch" width="11.039" height="39.352" rx="1.691" transform="translate(0 19.394)"/><path class="ci" d="M1427.359,501.671h0a.479.479,0,0,1-.479-.478V424.009a.48.48,0,0,1,.479-.479h0a.48.48,0,0,1,.48.479v77.184A.48.48,0,0,1,1427.359,501.671Z" transform="translate(-1421.84 -423.53)"/></g><g transform="translate(1485.572 363.762)"><rect class="cj" width="11.039" height="83.297" rx="1.691" transform="translate(0 19.393)"/><path class="ck" d="M1460.738,476.866h0a.477.477,0,0,1-.479-.477V355.26a.478.478,0,0,1,.478-.478h0a.478.478,0,0,1,.479.478V476.387a.479.479,0,0,1-.478.479Z" transform="translate(-1455.222 -354.782)"/></g><g transform="translate(1519.661 390.794)"><rect class="cl" width="11.039" height="105.269" rx="1.691" transform="translate(0 19.394)"/><path class="cm" d="M1494.125,524.473h0a.478.478,0,0,1-.479-.479v-143.1a.479.479,0,0,1,.479-.479h0a.479.479,0,0,1,.478.479v143.1A.478.478,0,0,1,1494.125,524.473Z" transform="translate(-1488.605 -380.416)"/></g><g transform="translate(1553.749 412.458)"><rect class="cn" width="11.039" height="39.352" rx="1.691" transform="translate(0 63.339)"/><path class="co" d="M1527.507,523.643h0a.478.478,0,0,1-.478-.479h0V402.037a.479.479,0,0,1,.478-.479h0a.481.481,0,0,1,.48.479V523.164a.48.48,0,0,1-.48.479Z" transform="translate(-1521.988 -401.558)"/></g><g transform="translate(1594.896 424.788)"><rect class="cp" width="11.039" height="17.381" rx="1.691" transform="translate(0 63.337)"/><path class="cq" d="M1560.89,513.868h0a.48.48,0,0,1-.479-.48V414.234a.478.478,0,0,1,.478-.479h0a.478.478,0,0,1,.479.479h0v99.154A.48.48,0,0,1,1560.89,513.868Z" transform="translate(-1555.371 -413.755)"/></g><g transform="translate(1628.279 477.258)"><rect class="cr" width="11.039" height="61.325" rx="1.691" transform="translate(0 19.394)"/><path class="cs" d="M1594.276,585.887h0a.479.479,0,0,1-.479-.479h0V464.282a.478.478,0,0,1,.479-.479h0a.478.478,0,0,1,.478.479h0V585.408a.479.479,0,0,1-.478.479Z" transform="translate(-1588.754 -463.803)"/></g><g transform="translate(1661.661 333.709)"><rect class="ct" width="11.039" height="149.212" rx="1.691" transform="translate(0 19.394)"/><path class="cu" d="M1627.656,513.086h0a.478.478,0,0,1-.479-.479h0V325.564a.478.478,0,0,1,.479-.478h0a.478.478,0,0,1,.48.478h0V512.608A.48.48,0,0,1,1627.656,513.086Z" transform="translate(-1622.136 -325.086)"/></g><g transform="translate(1695.044 358.153)"><rect class="cv" width="11.039" height="105.269" rx="1.691" transform="translate(0 19.398)"/><path class="cw" d="M1661.039,493.165h0a.478.478,0,0,1-.48-.478h0v-143.1a.479.479,0,0,1,.48-.479h0a.479.479,0,0,1,.478.478h0v143.1A.478.478,0,0,1,1661.039,493.165Z" transform="translate(-1655.519 -349.104)"/></g><g transform="translate(1728.427 378.86)"><rect class="cx" width="11.039" height="39.352" rx="1.691" transform="translate(0 19.394)"/><path class="cy" d="M1694.421,448h0a.479.479,0,0,1-.479-.479h0V370.339a.479.479,0,0,1,.479-.479h0a.478.478,0,0,1,.479.479h0v77.183a.478.478,0,0,1-.479.479Z" transform="translate(-1688.902 -369.86)"/></g><g transform="translate(1761.81 252.285)"><rect class="cz" width="11.039" height="83.297" rx="1.691" transform="translate(0 19.395)"/><path class="da" d="M1727.8,374.37h0a.48.48,0,0,1-.479-.479h0V252.765a.48.48,0,0,1,.479-.48h0a.481.481,0,0,1,.48.48V373.891A.481.481,0,0,1,1727.8,374.37Z" transform="translate(-1722.285 -252.285)"/></g><g transform="translate(1795.193 145.306)"><rect class="db" width="11.039" height="193.157" rx="1.691" transform="translate(0 63.339)"/><path class="dc" d="M1761.186,465.137h0a.479.479,0,0,1-.479-.479V145.785a.479.479,0,0,1,.479-.479h0a.48.48,0,0,1,.48.478h0V464.658a.48.48,0,0,1-.48.479Z" transform="translate(-1755.667 -145.306)"/></g><g transform="translate(1828.576 265.054)"><rect class="dd" width="11.039" height="127.241" rx="1.691" transform="translate(0 19.394)"/><path class="de" d="M1794.57,469.192h0a.48.48,0,0,1-.48-.479V259.7a.479.479,0,0,1,.479-.479h0a.478.478,0,0,1,.478.479h0V468.713a.478.478,0,0,1-.478.479Z" transform="translate(-1789.05 -259.219)"/></g><g transform="translate(1861.958 182.756)"><rect class="df" width="11.039" height="39.353" rx="1.691" transform="translate(0 19.394)"/><path class="dg" d="M1827.952,260.9h0a.478.478,0,0,1-.479-.478h0V183.235a.478.478,0,0,1,.479-.479h0a.479.479,0,0,1,.479.479v77.184A.479.479,0,0,1,1827.952,260.9Z" transform="translate(-1822.433 -182.756)"/></g><g transform="translate(1895.341 135.98)"><rect class="dh" width="11.039" height="17.381" rx="1.691" transform="translate(0 41.366)"/><path class="di" d="M1861.335,214.121h0a.478.478,0,0,1-.479-.478h0V136.459a.479.479,0,0,1,.478-.479h0a.478.478,0,0,1,.479.479h0v77.184a.478.478,0,0,1-.479.478Z" transform="translate(-1855.816 -135.98)"/></g><g transform="translate(1928.724 139.251)"><rect class="dj" width="11.039" height="61.325" rx="1.691" transform="translate(0 19.394)"/><path class="dk" d="M1894.718,239.364h0a.479.479,0,0,1-.48-.479h0V139.73a.481.481,0,0,1,.48-.479h0a.479.479,0,0,1,.479.477v99.157a.479.479,0,0,1-.478.479Z" transform="translate(-1889.199 -139.251)"/></g></g></svg>