<svg xmlns="http://www.w3.org/2000/svg" xmlns:xlink="http://www.w3.org/1999/xlink" width="1920" height="217.036" viewBox="0 0 1920 217.036"><defs><style>.a{fill:url(#a);}</style><linearGradient id="a" y1="1.48" x2="1" y2="1.48" gradientUnits="objectBoundingBox"><stop offset="0" stop-color="#010c3e"/><stop offset="0.519" stop-color="#03105f"/><stop offset="1" stop-color="#010c3e"/></linearGradient></defs><path class="a" d="M1921,438.517H1V221.481c.021.03,1.979,3.156,6.019,8.47a280.885,280.885,0,0,0,19.088,22.338A388.923,388.923,0,0,0,59.813,283.87a470.407,470.407,0,0,0,49.87,36.2C154.947,348.7,206.9,371.5,264.111,387.86c16.538,4.729,33.74,8.973,51.129,12.615,18.3,3.834,37.322,7.106,56.524,9.726,20.138,2.748,41.036,4.854,62.113,6.261,22.033,1.47,44.877,2.216,67.9,2.217h.035c25.986,0,52.942-.95,80.118-2.822,28.342-1.953,57.73-4.966,87.35-8.954,263.394-35.471,589.723-80.732,817.1-112.456C1732.321,260.13,1919.182,233.753,1921,233.5v205.02Z" transform="translate(-1 -221.481)"/></svg>