<svg id="curve" xmlns="http://www.w3.org/2000/svg" width="1920" height="146" viewBox="0 0 1920 146">
  <path id="Path_52900" data-name="Path 52900" d="M1920,6.175c-24.927,1.986-203.5,16.2-432.553,34.252-412.753,32.518-673.082,52.552-818.79,63.632-29.68,2.258-59.131,3.963-87.532,5.068-27.237,1.06-54.249,1.6-80.286,1.6H500.8c-21.895,0-43.652-.381-64.667-1.131-20.15-.72-40.151-1.8-59.446-3.2-18.45-1.342-36.752-3.023-54.39-4.994-16.809-1.878-33.468-4.071-49.5-6.514-15.231-2.321-30.3-4.928-44.776-7.75-13.7-2.669-27.229-5.6-40.218-8.708-12.216-2.925-24.268-6.084-35.824-9.389-10.8-3.09-21.428-6.382-31.6-9.788C41.719,32.894,6.3,5.27,0,0V146H1920Z" fill="#fff"/>
</svg>
