<svg id="trading" xmlns="http://www.w3.org/2000/svg" width="374.5" height="139.594" viewBox="0 0 374.5 139.594">
  <g id="Group_13819" data-name="Group 13819" opacity="0.5" style="mix-blend-mode: normal;isolation: isolate">
    <rect id="Rectangle_11295" data-name="Rectangle 11295" width="2.153" height="20.533" rx="1.077" transform="translate(6.511 104.882)" fill="#3d5085"/>
    <path id="Path_3948" data-name="Path 3948" d="M58.279,748.613h0a.094.094,0,0,1-.094-.094V720.607a.094.094,0,0,1,.094-.093h0a.093.093,0,0,1,.093.093v27.912A.094.094,0,0,1,58.279,748.613Z" transform="translate(-50.691 -619.415)" fill="#3d5085"/>
    <rect id="Rectangle_11296" data-name="Rectangle 11296" width="2.153" height="11.962" rx="1.077" transform="translate(0 122.653)" fill="#3d5085"/>
    <path id="Path_3949" data-name="Path 3949" d="M24.9,831.152h0a.093.093,0,0,1-.093-.093v-19.34a.093.093,0,0,1,.093-.093h0a.094.094,0,0,1,.094.093v19.341A.094.094,0,0,1,24.9,831.152Z" transform="translate(-23.82 -692.755)" fill="#3d5085"/>
    <rect id="Rectangle_11297" data-name="Rectangle 11297" width="2.153" height="16.247" rx="1.077" transform="translate(13.023 100.682)" fill="#3d5085"/>
    <path id="Path_3950" data-name="Path 3950" d="M91.662,722.794h0a.093.093,0,0,1-.093-.093V699.074a.093.093,0,0,1,.093-.093h0a.093.093,0,0,1,.093.093V722.7A.093.093,0,0,1,91.662,722.794Z" transform="translate(-77.563 -602.082)" fill="#3d5085"/>
    <rect id="Rectangle_11298" data-name="Rectangle 11298" width="2.153" height="16.247" rx="1.077" transform="translate(19.534 109.806)" fill="#3d5085"/>
    <path id="Path_3951" data-name="Path 3951" d="M125.045,769.57h0a.093.093,0,0,1-.093-.093V745.85a.093.093,0,0,1,.093-.094h0a.094.094,0,0,1,.094.094v23.626A.094.094,0,0,1,125.045,769.57Z" transform="translate(-104.435 -639.734)" fill="#3d5085"/>
    <rect id="Rectangle_11299" data-name="Rectangle 11299" width="2.153" height="11.962" rx="1.077" transform="translate(26.046 107.387)" fill="#3d5085"/>
    <path id="Path_3952" data-name="Path 3952" d="M158.427,752.882h0a.094.094,0,0,1-.093-.094v-19.34a.094.094,0,0,1,.093-.094h0a.094.094,0,0,1,.093.094v19.34A.093.093,0,0,1,158.427,752.882Z" transform="translate(-131.305 -629.751)" fill="#3d5085"/>
    <rect id="Rectangle_11300" data-name="Rectangle 11300" width="2.153" height="20.533" rx="1.077" transform="translate(32.557 102.225)" fill="#3d5085"/>
    <path id="Path_3953" data-name="Path 3953" d="M191.81,699.617h0a.093.093,0,0,1-.093-.093V663.04a.094.094,0,0,1,.093-.093h0a.094.094,0,0,1,.093.093v36.483A.093.093,0,0,1,191.81,699.617Z" transform="translate(-158.177 -573.077)" fill="#3d5085"/>
    <rect id="Rectangle_11301" data-name="Rectangle 11301" width="2.153" height="11.962" rx="1.077" transform="translate(39.068 116.11)" fill="#3d5085"/>
    <path id="Path_3954" data-name="Path 3954" d="M225.193,797.607h0a.093.093,0,0,1-.093-.093h0v-19.34a.093.093,0,0,1,.093-.093h0a.093.093,0,0,1,.093.093h0v19.34a.093.093,0,0,1-.093.094Z" transform="translate(-185.049 -665.753)" fill="#3d5085"/>
    <rect id="Rectangle_11302" data-name="Rectangle 11302" width="2.153" height="11.962" rx="1.077" transform="translate(45.58 115.278)" fill="#3d5085"/>
    <path id="Path_3955" data-name="Path 3955" d="M258.576,801.911h0a.094.094,0,0,1-.094-.094h0V773.905a.093.093,0,0,1,.093-.093h0a.093.093,0,0,1,.093.093v27.912A.094.094,0,0,1,258.576,801.911Z" transform="translate(-211.919 -662.317)" fill="#3d5085"/>
    <rect id="Rectangle_11303" data-name="Rectangle 11303" width="2.153" height="7.676" rx="1.077" transform="translate(52.091 117.145)" fill="#3d5085"/>
    <path id="Path_3956" data-name="Path 3956" d="M291.959,798.625h0a.093.093,0,0,1-.093-.094h0V783.476a.093.093,0,0,1,.093-.093h0a.093.093,0,0,1,.093.093v15.055a.093.093,0,0,1-.093.094Z" transform="translate(-238.792 -670.021)" fill="#3d5085"/>
    <rect id="Rectangle_11304" data-name="Rectangle 11304" width="2.153" height="7.676" rx="1.077" transform="translate(58.602 112.545)" fill="#3d5085"/>
    <path id="Path_3957" data-name="Path 3957" d="M325.341,757.355h0a.094.094,0,0,1-.093-.093h0v-19.34a.093.093,0,0,1,.093-.093h0a.093.093,0,0,1,.094.093h0v19.34a.094.094,0,0,1-.093.094Z" transform="translate(-265.662 -633.352)" fill="#3d5085"/>
    <rect id="Rectangle_11305" data-name="Rectangle 11305" width="2.153" height="16.247" rx="1.077" transform="translate(65.114 102.248)" fill="#3d5085"/>
    <path id="Path_3958" data-name="Path 3958" d="M358.724,697.178h0a.093.093,0,0,1-.094-.093h0V669.172a.093.093,0,0,1,.093-.094h0a.093.093,0,0,1,.093.094v27.912A.094.094,0,0,1,358.724,697.178Z" transform="translate(-292.533 -578.012)" fill="#3d5085"/>
    <rect id="Rectangle_11306" data-name="Rectangle 11306" width="2.153" height="29.104" rx="1.077" transform="translate(73.14 91.638)" fill="#3d5085"/>
    <path id="Path_3959" data-name="Path 3959" d="M392.107,693.571h0a.093.093,0,0,1-.093-.093V652.709a.093.093,0,0,1,.093-.094h0a.093.093,0,0,1,.093.093h0v40.769A.093.093,0,0,1,392.107,693.571Z" transform="translate(-317.891 -564.76)" fill="#3d5085"/>
    <rect id="Rectangle_11307" data-name="Rectangle 11307" width="2.153" height="16.247" rx="1.077" transform="translate(79.789 102.455)" fill="#3d5085"/>
    <path id="Path_3960" data-name="Path 3960" d="M425.485,716.085h0a.093.093,0,0,1-.093-.093V692.365a.094.094,0,0,1,.093-.093h0a.094.094,0,0,1,.094.093v23.626a.094.094,0,0,1-.094.094Z" transform="translate(-344.621 -596.681)" fill="#3d5085"/>
    <rect id="Rectangle_11308" data-name="Rectangle 11308" width="2.153" height="11.962" rx="1.077" transform="translate(86.438 108.735)" fill="#3d5085"/>
    <path id="Path_3961" data-name="Path 3961" d="M458.872,768.367h0a.094.094,0,0,1-.093-.093V740.362a.094.094,0,0,1,.093-.094h0a.093.093,0,0,1,.093.093h0v27.912A.093.093,0,0,1,458.872,768.367Z" transform="translate(-371.358 -635.316)" fill="#3d5085"/>
    <rect id="Rectangle_11309" data-name="Rectangle 11309" width="2.153" height="7.676" rx="1.077" transform="translate(93.087 111.474)" fill="#3d5085"/>
    <path id="Path_3962" data-name="Path 3962" d="M492.254,769.556h0a.093.093,0,0,1-.093-.093V754.409a.093.093,0,0,1,.093-.093h0a.093.093,0,0,1,.093.093v15.055A.093.093,0,0,1,492.254,769.556Z" transform="translate(-398.091 -646.624)" fill="#3d5085"/>
    <rect id="Rectangle_11310" data-name="Rectangle 11310" width="2.153" height="3.39" rx="1.077" transform="translate(99.736 111.636)" fill="#3d5085"/>
    <path id="Path_3963" data-name="Path 3963" d="M525.638,766.1h0a.093.093,0,0,1-.093-.093V755.235a.093.093,0,0,1,.093-.093h0a.093.093,0,0,1,.093.093V766A.093.093,0,0,1,525.638,766.1Z" transform="translate(-424.826 -647.289)" fill="#3d5085"/>
    <rect id="Rectangle_11311" data-name="Rectangle 11311" width="2.153" height="11.962" rx="1.077" transform="translate(106.385 96.785)" fill="#3d5085"/>
    <path id="Path_3964" data-name="Path 3964" d="M559.021,664.652h0a.094.094,0,0,1-.093-.094V640.932a.094.094,0,0,1,.093-.093h0a.093.093,0,0,1,.094.093h0v23.626a.094.094,0,0,1-.093.094Z" transform="translate(-451.56 -552.248)" fill="#3d5085"/>
    <rect id="Rectangle_11312" data-name="Rectangle 11312" width="2.153" height="16.247" rx="1.077" transform="translate(113.034 89.466)" fill="#3d5085"/>
    <path id="Path_3965" data-name="Path 3965" d="M592.4,646.762h0a.093.093,0,0,1-.093-.093V623.042a.093.093,0,0,1,.093-.093h0a.093.093,0,0,1,.093.093v23.626A.093.093,0,0,1,592.4,646.762Z" transform="translate(-478.294 -537.497)" fill="#3d5085"/>
    <rect id="Rectangle_11313" data-name="Rectangle 11313" width="2.153" height="29.104" rx="1.077" transform="translate(119.683 77.054)" fill="#3d5085"/>
    <path id="Path_3966" data-name="Path 3966" d="M625.786,594.142h0a.093.093,0,0,1-.094-.093V557.565a.094.094,0,0,1,.094-.093h0a.094.094,0,0,1,.094.093v36.483A.094.094,0,0,1,625.786,594.142Z" transform="translate(-505.027 -484.425)" fill="#3d5085"/>
    <rect id="Rectangle_11314" data-name="Rectangle 11314" width="2.153" height="11.962" rx="1.077" transform="translate(126.332 83.991)" fill="#3d5085"/>
    <path id="Path_3967" data-name="Path 3967" d="M659.169,596.36h0a.094.094,0,0,1-.094-.094V568.355a.094.094,0,0,1,.094-.093h0a.094.094,0,0,1,.093.093h0v27.912A.093.093,0,0,1,659.169,596.36Z" transform="translate(-531.76 -492.698)" fill="#3d5085"/>
    <rect id="Rectangle_11315" data-name="Rectangle 11315" width="2.153" height="3.39" rx="1.077" transform="translate(132.981 72.004)" fill="#3d5085"/>
    <path id="Path_3968" data-name="Path 3968" d="M692.552,531.66h0a.093.093,0,0,1-.093-.094V520.8a.093.093,0,0,1,.093-.093h0a.093.093,0,0,1,.093.093h0v10.769A.093.093,0,0,1,692.552,531.66Z" transform="translate(-558.495 -452.51)" fill="#3d5085"/>
    <rect id="Rectangle_11316" data-name="Rectangle 11316" width="2.153" height="13.401" rx="1.077" transform="translate(139.63 65.388)" fill="#3d5085"/>
    <path id="Path_3969" data-name="Path 3969" d="M725.935,509.142h0a.086.086,0,0,1-.093-.077V489.578a.087.087,0,0,1,.093-.077h0a.087.087,0,0,1,.094.077v19.487A.086.086,0,0,1,725.935,509.142Z" transform="translate(-585.229 -427.248)" fill="#3d5085"/>
    <rect id="Rectangle_11317" data-name="Rectangle 11317" width="2.153" height="24.819" rx="1.077" transform="translate(146.279 55.772)" fill="#3d5085"/>
    <path id="Path_3970" data-name="Path 3970" d="M759.317,467.105h0a.093.093,0,0,1-.093-.093h0v-32.2a.093.093,0,0,1,.093-.093h0a.094.094,0,0,1,.094.093h0v32.2a.094.094,0,0,1-.094.093Z" transform="translate(-611.962 -382.716)" fill="#3d5085"/>
    <rect id="Rectangle_11318" data-name="Rectangle 11318" width="2.153" height="37.676" rx="1.077" transform="translate(152.928 62.703)" fill="#3d5085"/>
    <path id="Path_3971" data-name="Path 3971" d="M792.7,475.672h0a.094.094,0,0,1-.094-.094v-62.2a.094.094,0,0,1,.094-.093h0a.093.093,0,0,1,.093.093v62.2A.094.094,0,0,1,792.7,475.672Z" transform="translate(-638.695 -366.95)" fill="#3d5085"/>
    <rect id="Rectangle_11319" data-name="Rectangle 11319" width="2.153" height="7.676" rx="1.077" transform="translate(159.577 79.156)" fill="#3d5085"/>
    <path id="Path_3972" data-name="Path 3972" d="M826.083,577.234h0a.093.093,0,0,1-.093-.093V562.086a.093.093,0,0,1,.093-.093h0a.093.093,0,0,1,.093.093h0v15.055A.093.093,0,0,1,826.083,577.234Z" transform="translate(-665.43 -486.717)" fill="#3d5085"/>
    <rect id="Rectangle_11320" data-name="Rectangle 11320" width="2.153" height="16.247" rx="1.077" transform="translate(166.226 74.429)" fill="#3d5085"/>
    <path id="Path_3973" data-name="Path 3973" d="M859.466,561.783h0a.093.093,0,0,1-.094-.093h0V538.063a.094.094,0,0,1,.094-.093h0a.093.093,0,0,1,.093.093v23.626a.093.093,0,0,1-.093.093Z" transform="translate(-692.163 -467.43)" fill="#3d5085"/>
    <rect id="Rectangle_11321" data-name="Rectangle 11321" width="2.153" height="3.39" rx="1.077" transform="translate(172.875 77.991)" fill="#3d5085"/>
    <path id="Path_3974" data-name="Path 3974" d="M892.849,565.2h0a.093.093,0,0,1-.093-.093V554.342a.093.093,0,0,1,.093-.093h0a.093.093,0,0,1,.093.093h0v10.769A.093.093,0,0,1,892.849,565.2Z" transform="translate(-718.898 -480.109)" fill="#3d5085"/>
    <rect id="Rectangle_11322" data-name="Rectangle 11322" width="2.153" height="16.247" rx="1.077" transform="translate(179.524 69.396)" fill="#3d5085"/>
    <path id="Path_3975" data-name="Path 3975" d="M926.231,516.041h0a.094.094,0,0,1-.093-.093V488.036a.094.094,0,0,1,.093-.094h0a.094.094,0,0,1,.094.094v27.912A.094.094,0,0,1,926.231,516.041Z" transform="translate(-745.631 -426.418)" fill="#3d5085"/>
    <rect id="Rectangle_11323" data-name="Rectangle 11323" width="2.153" height="29.104" rx="1.077" transform="translate(186.173 61.39)" fill="#3d5085"/>
    <path id="Path_3976" data-name="Path 3976" d="M959.614,504.691h0a.094.094,0,0,1-.094-.093h0V468.114a.093.093,0,0,1,.093-.093h0a.093.093,0,0,1,.093.093h0V504.6A.093.093,0,0,1,959.614,504.691Z" transform="translate(-772.364 -410.477)" fill="#3d5085"/>
    <rect id="Rectangle_11324" data-name="Rectangle 11324" width="2.153" height="37.676" rx="1.077" transform="translate(192.822 64.295)" fill="#3d5085"/>
    <path id="Path_3977" data-name="Path 3977" d="M993,540.135h0a.094.094,0,0,1-.094-.094V486.415a.093.093,0,0,1,.094-.093h0a.093.093,0,0,1,.093.093h0v53.626A.094.094,0,0,1,993,540.135Z" transform="translate(-799.098 -426.93)" fill="#3d5085"/>
    <rect id="Rectangle_11325" data-name="Rectangle 11325" width="2.153" height="11.962" rx="1.077" transform="translate(199.471 76.396)" fill="#3d5085"/>
    <path id="Path_3978" data-name="Path 3978" d="M1026.38,567.272h0a.093.093,0,0,1-.093-.093V547.838a.094.094,0,0,1,.093-.094h0a.094.094,0,0,1,.094.094v19.34a.094.094,0,0,1-.093.094Z" transform="translate(-825.832 -475.229)" fill="#3d5085"/>
    <rect id="Rectangle_11326" data-name="Rectangle 11326" width="2.153" height="3.39" rx="1.077" transform="translate(206.12 88.369)" fill="#3d5085"/>
    <path id="Path_3979" data-name="Path 3979" d="M1059.763,623.347h0a.094.094,0,0,1-.093-.093V612.484a.093.093,0,0,1,.093-.093h0a.093.093,0,0,1,.094.093v10.769A.093.093,0,0,1,1059.763,623.347Z" transform="translate(-852.566 -527.944)" fill="#3d5085"/>
    <rect id="Rectangle_11327" data-name="Rectangle 11327" width="2.153" height="7.676" rx="1.077" transform="translate(212.77 96.67)" fill="#3d5085"/>
    <path id="Path_3980" data-name="Path 3980" d="M1093.146,675.629h0a.093.093,0,0,1-.093-.093V660.482a.093.093,0,0,1,.093-.093h0a.093.093,0,0,1,.093.093h0v15.055A.093.093,0,0,1,1093.146,675.629Z" transform="translate(-879.3 -567.725)" fill="#3d5085"/>
    <rect id="Rectangle_11328" data-name="Rectangle 11328" width="2.153" height="16.247" rx="1.077" transform="translate(219.419 91.925)" fill="#3d5085"/>
    <path id="Path_3981" data-name="Path 3981" d="M1126.528,646.778h0a.093.093,0,0,1-.093-.094v-32.2a.093.093,0,0,1,.093-.093h0a.094.094,0,0,1,.094.093v32.2A.094.094,0,0,1,1126.528,646.778Z" transform="translate(-906.033 -531.111)" fill="#3d5085"/>
    <rect id="Rectangle_11329" data-name="Rectangle 11329" width="2.153" height="20.533" rx="1.077" transform="translate(226.068 96.862)" fill="#3d5085"/>
    <path id="Path_3982" data-name="Path 3982" d="M1159.911,690.1h0a.093.093,0,0,1-.094-.093V662.093a.094.094,0,0,1,.094-.094h0a.094.094,0,0,1,.093.094V690A.093.093,0,0,1,1159.911,690.1Z" transform="translate(-932.767 -572.313)" fill="#3d5085"/>
    <rect id="Rectangle_11330" data-name="Rectangle 11330" width="2.153" height="24.819" rx="1.077" transform="translate(232.717 79.131)" fill="#3d5085"/>
    <path id="Path_3983" data-name="Path 3983" d="M1193.294,600h0a.093.093,0,0,1-.093-.093v-32.2a.093.093,0,0,1,.093-.093h0a.093.093,0,0,1,.093.093v32.2A.093.093,0,0,1,1193.294,600Z" transform="translate(-959.501 -492.478)" fill="#3d5085"/>
    <rect id="Rectangle_11331" data-name="Rectangle 11331" width="2.153" height="7.676" rx="1.077" transform="translate(239.366 92.756)" fill="#3d5085"/>
    <path id="Path_3984" data-name="Path 3984" d="M1226.677,639.867h0a.093.093,0,0,1-.093-.093V616.147a.093.093,0,0,1,.093-.093h0a.094.094,0,0,1,.094.093v23.626A.094.094,0,0,1,1226.677,639.867Z" transform="translate(-986.235 -531.812)" fill="#3d5085"/>
    <rect id="Rectangle_11332" data-name="Rectangle 11332" width="2.153" height="11.962" rx="1.077" transform="translate(246.015 86.319)" fill="#3d5085"/>
    <path id="Path_3985" data-name="Path 3985" d="M1260.058,623.179h0a.094.094,0,0,1-.094-.093h0v-19.34a.093.093,0,0,1,.094-.093h0a.094.094,0,0,1,.094.093v19.34A.094.094,0,0,1,1260.058,623.179Z" transform="translate(-1012.967 -521.291)" fill="#3d5085"/>
    <rect id="Rectangle_11333" data-name="Rectangle 11333" width="2.153" height="3.39" rx="1.077" transform="translate(252.664 82.748)" fill="#3d5085"/>
    <path id="Path_3986" data-name="Path 3986" d="M1293.442,591.854h0a.094.094,0,0,1-.094-.093V580.992a.094.094,0,0,1,.094-.094h0a.093.093,0,0,1,.093.093h0V591.76A.093.093,0,0,1,1293.442,591.854Z" transform="translate(-1039.701 -502.034)" fill="#3d5085"/>
    <rect id="Rectangle_11334" data-name="Rectangle 11334" width="2.153" height="24.819" rx="1.077" transform="translate(259.313 61.804)" fill="#3d5085"/>
    <path id="Path_3987" data-name="Path 3987" d="M1326.825,501.421h0a.093.093,0,0,1-.094-.093v-32.2a.093.093,0,0,1,.094-.093h0a.093.093,0,0,1,.093.093h0v32.2a.093.093,0,0,1-.093.093Z" transform="translate(-1066.436 -411.058)" fill="#3d5085"/>
    <rect id="Rectangle_11335" data-name="Rectangle 11335" width="2.153" height="37.676" rx="1.077" transform="translate(265.962 58.089)" fill="#3d5085"/>
    <path id="Path_3988" data-name="Path 3988" d="M1360.208,504.539h0a.093.093,0,0,1-.093-.093h0V450.82a.093.093,0,0,1,.093-.093h0a.094.094,0,0,1,.094.093v53.626a.094.094,0,0,1-.094.093Z" transform="translate(-1093.17 -397.369)" fill="#3d5085"/>
    <rect id="Rectangle_11336" data-name="Rectangle 11336" width="2.153" height="11.962" rx="1.077" transform="translate(272.611 62.14)" fill="#3d5085"/>
    <path id="Path_3989" data-name="Path 3989" d="M1393.591,486.952h0a.093.093,0,0,1-.093-.093v-19.34a.093.093,0,0,1,.093-.093h0a.093.093,0,0,1,.093.093v19.34A.093.093,0,0,1,1393.591,486.952Z" transform="translate(-1119.904 -409.055)" fill="#3d5085"/>
    <rect id="Rectangle_11337" data-name="Rectangle 11337" width="2.153" height="7.676" rx="1.077" transform="translate(279.26 54.509)" fill="#3d5085"/>
    <path id="Path_3990" data-name="Path 3990" d="M1426.973,438.772h0a.093.093,0,0,1-.093-.093V423.623a.093.093,0,0,1,.093-.093h0a.094.094,0,0,1,.094.093v15.055A.094.094,0,0,1,1426.973,438.772Z" transform="translate(-1146.637 -372.72)" fill="#3d5085"/>
    <rect id="Rectangle_11338" data-name="Rectangle 11338" width="2.153" height="16.247" rx="1.077" transform="translate(285.909 42.014)" fill="#3d5085"/>
    <path id="Path_3991" data-name="Path 3991" d="M1460.352,378.595h0a.093.093,0,0,1-.094-.093h0V354.875a.093.093,0,0,1,.093-.093h0a.093.093,0,0,1,.093.093V378.5a.093.093,0,0,1-.093.093Z" transform="translate(-1173.367 -316.387)" fill="#3d5085"/>
    <rect id="Rectangle_11339" data-name="Rectangle 11339" width="2.153" height="20.533" rx="1.077" transform="translate(292.558 46.394)" fill="#3d5085"/>
    <path id="Path_3992" data-name="Path 3992" d="M1493.739,408.515h0a.093.093,0,0,1-.093-.093V380.509a.093.093,0,0,1,.093-.093h0a.093.093,0,0,1,.093.093v27.912A.093.093,0,0,1,1493.739,408.515Z" transform="translate(-1200.104 -337.688)" fill="#3d5085"/>
    <rect id="Rectangle_11340" data-name="Rectangle 11340" width="2.153" height="7.676" rx="1.077" transform="translate(299.207 58.247)" fill="#3d5085"/>
    <path id="Path_3993" data-name="Path 3993" d="M1527.122,425.371h0a.093.093,0,0,1-.093-.093h0V401.651a.093.093,0,0,1,.093-.093h0a.094.094,0,0,1,.094.093v23.626a.094.094,0,0,1-.094.093Z" transform="translate(-1226.839 -354.955)" fill="#3d5085"/>
    <rect id="Rectangle_11341" data-name="Rectangle 11341" width="2.153" height="3.39" rx="1.077" transform="translate(307.233 60.591)" fill="#3d5085"/>
    <path id="Path_3994" data-name="Path 3994" d="M1560.5,433.282h0a.093.093,0,0,1-.093-.094v-19.34a.093.093,0,0,1,.093-.093h0a.094.094,0,0,1,.094.093h0v19.34A.094.094,0,0,1,1560.5,433.282Z" transform="translate(-1252.195 -364.837)" fill="#3d5085"/>
    <rect id="Rectangle_11342" data-name="Rectangle 11342" width="2.153" height="11.962" rx="1.077" transform="translate(313.744 61.571)" fill="#3d5085"/>
    <path id="Path_3995" data-name="Path 3995" d="M1593.89,487.616h0a.093.093,0,0,1-.093-.093h0V463.9a.093.093,0,0,1,.093-.093h0a.093.093,0,0,1,.094.093h0v23.626a.094.094,0,0,1-.094.093Z" transform="translate(-1279.069 -406.277)" fill="#3d5085"/>
    <rect id="Rectangle_11343" data-name="Rectangle 11343" width="2.153" height="29.104" rx="1.077" transform="translate(320.256 36.361)" fill="#3d5085"/>
    <path id="Path_3996" data-name="Path 3996" d="M1627.27,361.756h0a.093.093,0,0,1-.093-.093h0V325.179a.093.093,0,0,1,.093-.093h0a.094.094,0,0,1,.094.093h0v36.483A.094.094,0,0,1,1627.27,361.756Z" transform="translate(-1305.938 -292.313)" fill="#3d5085"/>
    <rect id="Rectangle_11344" data-name="Rectangle 11344" width="2.153" height="20.533" rx="1.077" transform="translate(326.767 40.872)" fill="#3d5085"/>
    <path id="Path_3997" data-name="Path 3997" d="M1660.652,377.2h0a.093.093,0,0,1-.094-.093h0V349.2a.094.094,0,0,1,.094-.093h0a.093.093,0,0,1,.093.093h0V377.11A.093.093,0,0,1,1660.652,377.2Z" transform="translate(-1332.809 -311.849)" fill="#3d5085"/>
    <rect id="Rectangle_11345" data-name="Rectangle 11345" width="2.153" height="7.676" rx="1.077" transform="translate(333.278 44.956)" fill="#3d5085"/>
    <path id="Path_3998" data-name="Path 3998" d="M1694.036,385.1h0a.094.094,0,0,1-.094-.093h0V369.953a.094.094,0,0,1,.094-.093h0a.093.093,0,0,1,.093.093h0v15.055a.093.093,0,0,1-.093.093Z" transform="translate(-1359.68 -328.533)" fill="#3d5085"/>
    <rect id="Rectangle_11346" data-name="Rectangle 11346" width="2.153" height="16.247" rx="1.077" transform="translate(339.79 23.066)" fill="#3d5085"/>
    <path id="Path_3999" data-name="Path 3999" d="M1727.417,276.1h0a.094.094,0,0,1-.093-.093h0V252.379a.094.094,0,0,1,.093-.094h0a.094.094,0,0,1,.094.094V276A.094.094,0,0,1,1727.417,276.1Z" transform="translate(-1386.551 -229.599)" fill="#3d5085"/>
    <rect id="Rectangle_11347" data-name="Rectangle 11347" width="2.153" height="37.676" rx="1.077" transform="translate(346.301 14.173)" fill="#3d5085"/>
    <path id="Path_4000" data-name="Path 4000" d="M1760.8,207.69h0a.094.094,0,0,1-.094-.093V145.4a.094.094,0,0,1,.094-.093h0a.094.094,0,0,1,.094.093h0v62.2a.093.093,0,0,1-.094.093Z" transform="translate(-1413.423 -143.487)" fill="#3d5085"/>
    <rect id="Rectangle_11348" data-name="Rectangle 11348" width="2.153" height="24.819" rx="1.077" transform="translate(352.813 24.996)" fill="#3d5085"/>
    <path id="Path_4001" data-name="Path 4001" d="M1794.183,300.175h0a.094.094,0,0,1-.094-.093V259.312a.093.093,0,0,1,.093-.093h0a.093.093,0,0,1,.093.093h0v40.769a.093.093,0,0,1-.093.093Z" transform="translate(-1440.294 -237.964)" fill="#3d5085"/>
    <rect id="Rectangle_11349" data-name="Rectangle 11349" width="2.153" height="7.676" rx="1.077" transform="translate(359.324 12.907)" fill="#3d5085"/>
    <path id="Path_4002" data-name="Path 4002" d="M1827.566,198h0a.093.093,0,0,1-.094-.093h0V182.849a.093.093,0,0,1,.094-.093h0a.093.093,0,0,1,.093.093V197.9A.093.093,0,0,1,1827.566,198Z" transform="translate(-1467.166 -173.632)" fill="#3d5085"/>
    <rect id="Rectangle_11350" data-name="Rectangle 11350" width="2.153" height="3.39" rx="1.077" transform="translate(365.835 8.068)" fill="#3d5085"/>
    <path id="Path_4003" data-name="Path 4003" d="M1860.949,151.222h0a.093.093,0,0,1-.093-.093h0V136.073a.093.093,0,0,1,.093-.093h0a.093.093,0,0,1,.093.093h0v15.055a.093.093,0,0,1-.093.093Z" transform="translate(-1494.038 -135.98)" fill="#3d5085"/>
    <rect id="Rectangle_11351" data-name="Rectangle 11351" width="2.153" height="11.962" rx="1.077" transform="translate(372.347 4.421)" fill="#3d5085"/>
    <path id="Path_4004" data-name="Path 4004" d="M1894.332,158.778h0a.094.094,0,0,1-.094-.093h0v-19.34a.094.094,0,0,1,.094-.093h0a.093.093,0,0,1,.093.093h0v19.34a.093.093,0,0,1-.093.093Z" transform="translate(-1520.908 -138.613)" fill="#3d5085"/>
  </g>
</svg>
