<svg xmlns="http://www.w3.org/2000/svg" width="45.765" height="46.776" viewBox="0 0 45.765 46.776"><defs><style>.a{fill:#bb914a;}</style></defs><path class="a" d="M349.9,214.221H307.586a.786.786,0,0,1-.786-.786V193.522a.786.786,0,0,1,.786-.786H349.9a.786.786,0,0,1,.786.786v4.451a.786.786,0,1,1-1.572,0v-3.665H308.372v18.341h40.742v-1.835a.786.786,0,1,1,1.572,0v2.621A.786.786,0,0,1,349.9,214.221Z" transform="translate(-305.861 -167.445)"/><path class="a" d="M349.9,200.724a.786.786,0,0,1-.786-.786v-1.965a.786.786,0,1,1,1.572,0v1.965A.786.786,0,0,1,349.9,200.724Z" transform="translate(-305.861 -167.445)"/><path class="a" d="M349.9,206.665a.786.786,0,0,1-.786-.786v-2.971a.786.786,0,1,1,1.572,0v2.971A.786.786,0,0,1,349.9,206.665Z" transform="translate(-305.861 -167.445)"/><path class="a" d="M349.9,211.6a.786.786,0,0,1-.786-.786v-1.965a.786.786,0,1,1,1.572,0v1.965A.786.786,0,0,1,349.9,211.6Z" transform="translate(-305.861 -167.445)"/><path class="a" d="M323.556,210.946h-9.027a.786.786,0,0,1-.786-.786A2.164,2.164,0,0,0,311.582,208a.786.786,0,0,1-.786-.786v-7.467a.786.786,0,0,1,.786-.786,2.164,2.164,0,0,0,2.161-2.162.786.786,0,0,1,.786-.786h9.208a.787.787,0,0,1,.668,1.2,12.325,12.325,0,0,0-1.682,6.415,12.543,12.543,0,0,0,1.516,6.143.787.787,0,0,1-.683,1.177Zm-8.324-1.572h7.057a14.678,14.678,0,0,1-1.138-5.748,14.483,14.483,0,0,1,1.272-6.043h-7.191a3.745,3.745,0,0,1-2.864,2.865v6.061A3.746,3.746,0,0,1,315.232,209.374Z" transform="translate(-305.861 -167.445)"/><path class="a" d="M342.957,210.946H333.93a.786.786,0,0,1-.682-1.177,12.554,12.554,0,0,0,1.516-6.143,12.317,12.317,0,0,0-1.683-6.414.787.787,0,0,1,.669-1.2h9.207a.786.786,0,0,1,.786.786,2.164,2.164,0,0,0,2.162,2.162.786.786,0,0,1,.786.786v7.467a.786.786,0,0,1-.786.786,2.165,2.165,0,0,0-2.162,2.162A.786.786,0,0,1,342.957,210.946Zm-7.759-1.572h7.057a3.746,3.746,0,0,1,2.864-2.865v-6.061a3.745,3.745,0,0,1-2.864-2.865h-7.192a14.467,14.467,0,0,1,1.273,6.043A14.678,14.678,0,0,1,335.2,209.374Z" transform="translate(-305.861 -167.445)"/><path class="a" d="M328.743,209.771a3.647,3.647,0,0,1-3.737-3.539.786.786,0,1,1,1.572,0,2.175,2.175,0,1,0,2.165-1.967,3.545,3.545,0,1,1,3.737-3.539.786.786,0,0,1-1.572,0,2.175,2.175,0,1,0-2.165,1.967,3.544,3.544,0,1,1,0,7.078Z" transform="translate(-305.861 -167.445)"/><path class="a" d="M328.743,210.884a.786.786,0,0,1-.786-.786V196.859a.786.786,0,1,1,1.572,0V210.1A.786.786,0,0,1,328.743,210.884Z" transform="translate(-305.861 -167.445)"/><path class="a" d="M309.6,185.924a.786.786,0,0,1-.786-.786v-1.965a.786.786,0,0,1,1.572,0v1.965A.786.786,0,0,1,309.6,185.924Z" transform="translate(-305.861 -167.445)"/><path class="a" d="M309.6,191.03a.786.786,0,0,1-.786-.786v-1.965a.786.786,0,0,1,1.572,0v1.965A.786.786,0,0,1,309.6,191.03Z" transform="translate(-305.861 -167.445)"/><path class="a" d="M313.569,183.959a.786.786,0,0,1-.786-.786V179.5a.786.786,0,0,1,.786-.786h1.172l-3.159-3.481-3.16,3.481H309.6a.786.786,0,0,1,.786.786v3.672a.786.786,0,0,1-1.572,0v-2.885h-2.162a.786.786,0,0,1-.582-1.315L311,173.537a.809.809,0,0,1,1.163,0l4.935,5.436a.786.786,0,0,1-.582,1.315h-2.161v2.885A.786.786,0,0,1,313.569,183.959Z" transform="translate(-305.861 -167.445)"/><path class="a" d="M313.569,191.03a.786.786,0,0,1-.786-.786v-1.965a.786.786,0,0,1,1.572,0v1.965A.786.786,0,0,1,313.569,191.03Z" transform="translate(-305.861 -167.445)"/><path class="a" d="M313.569,185.924a.786.786,0,0,1-.786-.786v-1.965a.786.786,0,0,1,1.572,0v1.965A.786.786,0,0,1,313.569,185.924Z" transform="translate(-305.861 -167.445)"/><path class="a" d="M347.891,185.924a.786.786,0,0,1-.786-.786v-1.965a.786.786,0,1,1,1.572,0v1.965A.785.785,0,0,1,347.891,185.924Z" transform="translate(-305.861 -167.445)"/><path class="a" d="M347.891,191.21a.786.786,0,0,1-.786-.786v-1.965a.786.786,0,1,1,1.572,0v1.965A.785.785,0,0,1,347.891,191.21Z" transform="translate(-305.861 -167.445)"/><path class="a" d="M347.891,183.959a.786.786,0,0,1-.786-.786v-3.491a.786.786,0,0,1,.786-.786h1.173l-3.16-3.482-3.159,3.482h1.173a.786.786,0,0,1,.786.786v3.491a.786.786,0,0,1-1.572,0v-2.705H340.97a.786.786,0,0,1-.582-1.314l4.934-5.437a.811.811,0,0,1,1.165,0l4.934,5.437a.786.786,0,0,1-.582,1.314h-2.162v2.705A.785.785,0,0,1,347.891,183.959Z" transform="translate(-305.861 -167.445)"/><path class="a" d="M343.918,191.21a.786.786,0,0,1-.786-.786v-1.965a.786.786,0,0,1,1.572,0v1.965A.786.786,0,0,1,343.918,191.21Z" transform="translate(-305.861 -167.445)"/><path class="a" d="M343.918,185.924a.786.786,0,0,1-.786-.786v-1.965a.786.786,0,0,1,1.572,0v1.965A.786.786,0,0,1,343.918,185.924Z" transform="translate(-305.861 -167.445)"/><path class="a" d="M330.73,174.356a.786.786,0,0,1,.786.786v1.965a.786.786,0,1,1-1.572,0v-1.965A.786.786,0,0,1,330.73,174.356Z" transform="translate(-305.861 -167.445)"/><path class="a" d="M330.73,167.445a.786.786,0,0,1,.786.786V170.2a.786.786,0,1,1-1.572,0v-1.965A.786.786,0,0,1,330.73,167.445Z" transform="translate(-305.861 -167.445)"/><path class="a" d="M326.756,176.321a.786.786,0,0,1,.786.786v3.438a.786.786,0,0,1-.786.786h-1.172l3.159,3.481,3.16-3.481H330.73a.786.786,0,0,1-.786-.786v-3.438a.786.786,0,1,1,1.572,0v2.652h2.162a.786.786,0,0,1,.582,1.314l-4.935,5.437a.811.811,0,0,1-1.164,0l-4.934-5.437a.786.786,0,0,1,.582-1.314h2.161v-2.652A.786.786,0,0,1,326.756,176.321Z" transform="translate(-305.861 -167.445)"/><path class="a" d="M326.756,167.445a.786.786,0,0,1,.786.786V170.2a.786.786,0,1,1-1.572,0v-1.965A.786.786,0,0,1,326.756,167.445Z" transform="translate(-305.861 -167.445)"/><path class="a" d="M326.756,174.356a.786.786,0,0,1,.786.786v1.965a.786.786,0,1,1-1.572,0v-1.965A.786.786,0,0,1,326.756,174.356Z" transform="translate(-305.861 -167.445)"/></svg>