<svg xmlns="http://www.w3.org/2000/svg" width="48.234" height="46.204" viewBox="0 0 48.234 46.204"><defs><style>.a{fill:#bb914a;}</style></defs><g transform="translate(0 0)"><path class="a" d="M265.536,394.906H233.653a3.44,3.44,0,1,1,0-6.88h31.883a3.44,3.44,0,1,1,0,6.88Zm-31.883-5.293a1.853,1.853,0,0,0,0,3.705h31.883a1.853,1.853,0,1,0,0-3.705Z" transform="translate(-225.478 -348.703)"/><path class="a" d="M249.451,358.415a4.664,4.664,0,1,1,4.664-4.664A4.669,4.669,0,0,1,249.451,358.415Zm0-7.74a3.076,3.076,0,1,0,3.076,3.076A3.079,3.079,0,0,0,249.451,350.676Z" transform="translate(-225.334 -349.088)"/><path class="a" d="M251.283,389.928h-3.7a.793.793,0,0,1-.794-.794V357.058a.793.793,0,0,1,1.176-.695,2.955,2.955,0,0,0,2.94,0,.794.794,0,0,1,1.177.695v9.656a.794.794,0,0,1-1.588,0v-8.5a4.439,4.439,0,0,1-2.117,0V388.34h2.117v-4.163a.794.794,0,0,1,1.588,0v4.957A.793.793,0,0,1,251.283,389.928Z" transform="translate(-225.314 -349.017)"/><path class="a" d="M251.247,384.729a.793.793,0,0,1-.794-.794v-2.381a.794.794,0,0,1,1.588,0v2.381A.794.794,0,0,1,251.247,384.729Z" transform="translate(-225.277 -348.775)"/><path class="a" d="M251.247,378.2a.793.793,0,0,1-.794-.794V373.17a.794.794,0,0,1,1.588,0V377.4A.794.794,0,0,1,251.247,378.2Z" transform="translate(-225.277 -348.858)"/><path class="a" d="M251.247,369.794a.793.793,0,0,1-.794-.794v-2.381a.794.794,0,0,1,1.588,0V369A.793.793,0,0,1,251.247,369.794Z" transform="translate(-225.277 -348.923)"/><path class="a" d="M266.779,357.146a3.407,3.407,0,1,1,3.407-3.406A3.41,3.41,0,0,1,266.779,357.146Zm0-5.226a1.819,1.819,0,1,0,1.82,1.82A1.821,1.821,0,0,0,266.779,351.92Z" transform="translate(-225.15 -349.076)"/><path class="a" d="M265.091,356.411H252.74a.794.794,0,0,1-.692-1.184,2.947,2.947,0,0,0,0-2.992.793.793,0,0,1,.692-1.183h12.351a.794.794,0,0,1,.549,1.367,1.8,1.8,0,0,0,0,2.624.794.794,0,0,1-.549,1.367Zm-11.184-1.588h9.758a3.423,3.423,0,0,1,0-2.183h-9.757a4.455,4.455,0,0,1,0,2.183Z" transform="translate(-225.263 -349.069)"/><path class="a" d="M232.1,357.146a3.407,3.407,0,1,1,3.406-3.406A3.41,3.41,0,0,1,232.1,357.146Zm0-5.226a1.819,1.819,0,1,0,1.819,1.82A1.821,1.821,0,0,0,232.1,351.92Z" transform="translate(-225.493 -349.076)"/><path class="a" d="M246.207,356.411H233.856a.794.794,0,0,1-.549-1.367,1.8,1.8,0,0,0,0-2.624.794.794,0,0,1,.549-1.367h12.351a.794.794,0,0,1,.692,1.183,2.947,2.947,0,0,0,0,2.992.795.795,0,0,1-.692,1.184Zm-10.926-1.588h9.758a4.471,4.471,0,0,1,0-2.183h-9.758a3.423,3.423,0,0,1,0,2.183Z" transform="translate(-225.449 -349.069)"/><path class="a" d="M266.811,375.5a6.612,6.612,0,0,1-6.6-6.6A.793.793,0,0,1,261,368.1h11.621a.793.793,0,0,1,.794.794A6.612,6.612,0,0,1,266.811,375.5Zm-4.953-5.81a5.017,5.017,0,0,0,9.907,0Z" transform="translate(-225.181 -348.9)"/><path class="a" d="M272.622,369.812a.8.8,0,0,1-.722-.464l-5.089-11.138-5.088,11.138a.794.794,0,0,1-1.444-.66l5.81-12.717a.793.793,0,0,1,1.444,0l5.811,12.717a.793.793,0,0,1-.393,1.051A.783.783,0,0,1,272.622,369.812Z" transform="translate(-225.181 -349.025)"/><path class="a" d="M232.128,375.5a6.611,6.611,0,0,1-6.6-6.6.793.793,0,0,1,.794-.794h11.62a.793.793,0,0,1,.794.794A6.611,6.611,0,0,1,232.128,375.5Zm-4.954-5.81a5.017,5.017,0,0,0,9.907,0Z" transform="translate(-225.524 -348.9)"/><path class="a" d="M237.939,369.812a.8.8,0,0,1-.723-.464l-5.088-11.138-5.088,11.138a.794.794,0,0,1-1.444-.66l5.81-12.717a.793.793,0,0,1,1.444,0l5.81,12.717a.792.792,0,0,1-.392,1.051A.783.783,0,0,1,237.939,369.812Z" transform="translate(-225.524 -349.025)"/></g></svg>