<svg xmlns="http://www.w3.org/2000/svg" width="36.889" height="46.523" viewBox="0 0 36.889 46.523"><defs><style>.a{fill:#bb914a;}</style></defs><g transform="translate(0)"><path class="a" d="M249.2,131.326c-.105,0-.211,0-.317-.005a8.792,8.792,0,0,1-8.308-8.8v-6.85a8.621,8.621,0,0,1,17.243,0v7.038a8.621,8.621,0,0,1-8.618,8.621Zm0-22.708a7.057,7.057,0,0,0-7.049,7.049v6.85a7.206,7.206,0,0,0,6.792,7.232,7.049,7.049,0,0,0,7.307-7.044v-7.038A7.058,7.058,0,0,0,249.2,108.618Z" transform="translate(-230.96 -107.046)"/><path class="a" d="M251.365,115.554a7.48,7.48,0,0,1-3.217-.738c-3.873-1.825-6.05-.838-6.071-.828a.786.786,0,0,1-.7-1.408c.112-.056,2.814-1.366,7.44.814,3.81,1.8,7.09-1.179,7.123-1.21a.786.786,0,0,1,1.067,1.154A9.021,9.021,0,0,1,251.365,115.554Z" transform="translate(-230.96 -107.046)"/><path class="a" d="M257.255,121.6a1.954,1.954,0,0,1-.368-.037.785.785,0,0,1-.64-.772l-.011-5.308a.785.785,0,0,1,.632-.792,1.919,1.919,0,0,1,.387-.042c1.437,0,2.563,1.527,2.563,3.476S258.692,121.6,257.255,121.6Zm.564-4.994v3.014a2.585,2.585,0,0,0,.427-1.495A2.7,2.7,0,0,0,257.819,116.6Z" transform="translate(-230.96 -107.046)"/><path class="a" d="M241.139,121.6c-1.437,0-2.562-1.526-2.562-3.475s1.125-3.476,2.562-3.476a1.937,1.937,0,0,1,.388.042.784.784,0,0,1,.631.792l-.007.125,0,5.183a.786.786,0,0,1-.64.772A1.973,1.973,0,0,1,241.139,121.6Zm-.563-4.994a2.914,2.914,0,0,0,0,3.037Z" transform="translate(-230.96 -107.046)"/><path class="a" d="M249.4,136.169c-2.393,0-4.2-1.071-4.2-2.492v-3.839a.786.786,0,0,1,1.116-.714,6.774,6.774,0,0,0,2.616.625,7.04,7.04,0,0,0,3.514-.793.786.786,0,0,1,1.149.7v4.024C253.6,135.1,251.8,136.169,249.4,136.169Zm-2.626-5.2v2.7c0,.237.9.92,2.626.92s2.625-.683,2.625-.92v-2.83a8.732,8.732,0,0,1-3.146.474A8.348,8.348,0,0,1,246.779,130.974Z" transform="translate(-230.96 -107.046)"/><path class="a" d="M265.356,153.569h-31.9a.785.785,0,0,1-.767-.958l3.132-13.964a6.524,6.524,0,0,1,4.746-4.906l5.231-1.359a.786.786,0,0,1,.983.761v.534c0,.237.9.92,2.626.92s2.625-.683,2.625-.92v-.534a.786.786,0,0,1,.984-.761l5.231,1.359a6.522,6.522,0,0,1,4.745,4.906l3.133,13.964a.785.785,0,0,1-.767.958ZM234.436,152h29.938l-2.918-13.006a4.958,4.958,0,0,0-3.606-3.729l-4.314-1.12c-.347,1.183-2.007,2.027-4.131,2.027s-3.785-.844-4.131-2.027l-4.314,1.12a4.958,4.958,0,0,0-3.607,3.729Z" transform="translate(-230.96 -107.046)"/><path class="a" d="M257.631,153.569a.785.785,0,0,1-.775-.661l-1.251-7.746a.786.786,0,0,1,1.553-.25l1.25,7.746a.785.785,0,0,1-.651.9A.765.765,0,0,1,257.631,153.569Z" transform="translate(-230.96 -107.046)"/><path class="a" d="M241.179,153.569a.766.766,0,0,1-.126-.01.785.785,0,0,1-.651-.9l1.25-7.746a.786.786,0,0,1,1.552.25l-1.25,7.746A.786.786,0,0,1,241.179,153.569Z" transform="translate(-230.96 -107.046)"/><path class="a" d="M249.4,151.5a.781.781,0,0,1-.526-.2l-2-1.8a.789.789,0,0,1-.251-.7l2-13.527a.786.786,0,0,1,1.555,0l2,13.527a.787.787,0,0,1-.252.7l-2,1.8A.783.783,0,0,1,249.4,151.5Zm-1.163-2.893,1.163,1.049,1.163-1.049-1.163-7.857Z" transform="translate(-230.96 -107.046)"/><path class="a" d="M267.063,153.569H231.746a.786.786,0,0,1,0-1.572h35.317a.786.786,0,1,1,0,1.572Z" transform="translate(-230.96 -107.046)"/></g></svg>