<svg xmlns="http://www.w3.org/2000/svg" width="49.159" height="46.267" viewBox="0 0 49.159 46.267"><defs><style>.a{fill:#bb914a;}</style></defs><g transform="translate(0)"><path class="a" d="M329.317,387.456a4.8,4.8,0,0,1-4.925-4.655.89.89,0,0,1,1.781,0,3.158,3.158,0,1,0,3.145-2.874,4.662,4.662,0,1,1,4.925-4.656.89.89,0,1,1-1.779,0,3.158,3.158,0,1,0-3.146,2.875,4.662,4.662,0,1,1,0,9.309Z" transform="translate(-304.738 -350.14)"/><path class="a" d="M328.847,389.155a.889.889,0,0,1-.89-.889v-18.1a.89.89,0,1,1,1.779,0v18.1A.889.889,0,0,1,328.847,389.155Z" transform="translate(-304.267 -350.317)"/><path class="a" d="M349.775,372.841a.89.89,0,0,1-.89-.89v-2.224a.89.89,0,0,1,1.779,0v2.224A.89.89,0,0,1,349.775,372.841Z" transform="translate(-301.506 -350.375)"/><path class="a" d="M349.775,381.463a.89.89,0,0,1-.89-.89v-4.716a.89.89,0,1,1,1.779,0v4.716A.89.89,0,0,1,349.775,381.463Z" transform="translate(-301.506 -349.566)"/><path class="a" d="M349.775,387.3a.89.89,0,0,1-.89-.89V384.19a.89.89,0,1,1,1.779,0v2.224A.89.89,0,0,1,349.775,387.3Z" transform="translate(-301.506 -348.466)"/><path class="a" d="M353.2,398.3h-43.18a2.993,2.993,0,0,1-2.99-2.99V359.273a2.993,2.993,0,0,1,2.99-2.99H353.2a2.993,2.993,0,0,1,2.989,2.99v12.11h-1.779v-12.11a1.211,1.211,0,0,0-1.21-1.21h-43.18a1.211,1.211,0,0,0-1.209,1.21v36.035a1.21,1.21,0,0,0,1.209,1.21H353.2a1.211,1.211,0,0,0,1.21-1.21v-5.329h1.779v5.329A2.993,2.993,0,0,1,353.2,398.3Z" transform="translate(-307.029 -352.031)"/><rect class="a" width="47.379" height="1.78" transform="translate(0.89 11.789)"/><path class="a" d="M315.485,361.721a.89.89,0,0,1-.89-.89v-7.414a.89.89,0,0,1,1.779,0v7.414A.89.89,0,0,1,315.485,361.721Z" transform="translate(-306.031 -352.527)"/><path class="a" d="M322.166,361.721a.89.89,0,0,1-.89-.89v-7.414a.89.89,0,1,1,1.779,0v7.414A.89.89,0,0,1,322.166,361.721Z" transform="translate(-305.149 -352.527)"/><path class="a" d="M328.847,361.721a.89.89,0,0,1-.89-.89v-7.414a.89.89,0,0,1,1.779,0v7.414A.89.89,0,0,1,328.847,361.721Z" transform="translate(-304.267 -352.527)"/><path class="a" d="M335.528,361.721a.89.89,0,0,1-.89-.89v-7.414a.89.89,0,1,1,1.779,0v7.414A.89.89,0,0,1,335.528,361.721Z" transform="translate(-303.386 -352.527)"/><path class="a" d="M342.21,361.721a.889.889,0,0,1-.89-.89v-7.414a.89.89,0,1,1,1.779,0v7.414A.89.89,0,0,1,342.21,361.721Z" transform="translate(-302.504 -352.527)"/><path class="a" d="M330.191,391.923a12.42,12.42,0,1,1,12.42-12.42A12.433,12.433,0,0,1,330.191,391.923Zm0-23.06A10.64,10.64,0,1,0,340.83,379.5,10.653,10.653,0,0,0,330.191,368.862Z" transform="translate(-305.611 -350.606)"/><path class="a" d="M330.737,397.158a17.108,17.108,0,1,1,17.108-17.108A17.128,17.128,0,0,1,330.737,397.158Zm0-32.436a15.328,15.328,0,1,0,15.329,15.328A15.346,15.346,0,0,0,330.737,364.722Z" transform="translate(-306.158 -351.153)"/></g></svg>