<svg xmlns="http://www.w3.org/2000/svg" width="54.162" height="46.214" viewBox="0 0 54.162 46.214"><defs><style>.a{fill:#bb914a;}</style></defs><g transform="translate(0 0)"><path class="a" d="M484.133,240.16a.91.91,0,0,1-.911-.911v-4a.911.911,0,0,1,1.822,0v4A.911.911,0,0,1,484.133,240.16Z" transform="translate(-461.026 -231.235)"/><path class="a" d="M477.9,241.832a.912.912,0,0,1-.79-.455l-2-3.467a.911.911,0,1,1,1.578-.911l2,3.467a.911.911,0,0,1-.788,1.366Z" transform="translate(-462.335 -230.885)"/><path class="a" d="M473.329,246.4a.9.9,0,0,1-.454-.123l-3.468-2a.911.911,0,0,1,.911-1.578l3.468,2a.911.911,0,0,1-.457,1.7Z" transform="translate(-463.293 -229.927)"/><path class="a" d="M471.659,252.636h-4a.911.911,0,1,1,0-1.822h4a.911.911,0,1,1,0,1.822Z" transform="translate(-463.643 -228.618)"/><path class="a" d="M469.863,261.148a.91.91,0,0,1-.457-1.7l3.468-2a.911.911,0,0,1,.911,1.578l-3.468,2A.894.894,0,0,1,469.863,261.148Z" transform="translate(-463.293 -227.584)"/><path class="a" d="M475.893,267.381a.911.911,0,0,1-.788-1.366l2-3.467a.911.911,0,1,1,1.578.911l-2,3.467A.912.912,0,0,1,475.893,267.381Z" transform="translate(-462.335 -226.827)"/><path class="a" d="M484.133,269.662a.91.91,0,0,1-.911-.911v-4a.911.911,0,0,1,1.822,0v4A.911.911,0,0,1,484.133,269.662Z" transform="translate(-461.026 -226.55)"/><path class="a" d="M495.413,246.4a.911.911,0,0,1-.457-1.7l3.467-2a.911.911,0,1,1,.911,1.578l-3.467,2A.9.9,0,0,1,495.413,246.4Z" transform="translate(-459.235 -229.927)"/><path class="a" d="M490.644,241.832a.911.911,0,0,1-.788-1.366l2-3.467a.911.911,0,1,1,1.578.911l-2,3.467A.912.912,0,0,1,490.644,241.832Z" transform="translate(-459.992 -230.885)"/><path class="a" d="M480.213,238.007a.912.912,0,0,1-.88-.674l-.345-1.289a.911.911,0,0,1,1.759-.473l.346,1.289a.91.91,0,0,1-.643,1.116A.892.892,0,0,1,480.213,238.007Z" transform="translate(-461.703 -231.146)"/><path class="a" d="M473.425,241.927a.912.912,0,0,1-.644-.267l-.943-.944a.91.91,0,0,1,1.287-1.287l.944.943a.911.911,0,0,1-.644,1.555Z" transform="translate(-462.876 -230.469)"/><path class="a" d="M469.507,248.716a.935.935,0,0,1-.238-.031l-1.289-.345a.911.911,0,1,1,.472-1.759l1.289.345a.911.911,0,0,1-.234,1.79Z" transform="translate(-463.554 -229.296)"/><path class="a" d="M468.216,256.948a.911.911,0,0,1-.235-1.792l1.289-.344a.911.911,0,1,1,.472,1.759l-1.289.345A.926.926,0,0,1,468.216,256.948Z" transform="translate(-463.554 -227.988)"/><path class="a" d="M472.481,264.416a.911.911,0,0,1-.643-1.555l.943-.943a.911.911,0,1,1,1.289,1.287l-.944.944A.91.91,0,0,1,472.481,264.416Z" transform="translate(-462.876 -226.897)"/><path class="a" d="M479.869,268.728a.912.912,0,0,1-.881-1.147l.345-1.29a.911.911,0,1,1,1.76.474l-.346,1.289A.91.91,0,0,1,479.869,268.728Z" transform="translate(-461.703 -226.267)"/><path class="a" d="M488.445,268.728a.912.912,0,0,1-.88-.674l-.345-1.289a.911.911,0,1,1,1.759-.474l.345,1.29a.91.91,0,0,1-.642,1.116A.943.943,0,0,1,488.445,268.728Z" transform="translate(-460.396 -226.267)"/><path class="a" d="M494.97,241.927a.911.911,0,0,1-.643-1.555l.943-.943a.911.911,0,1,1,1.289,1.287l-.944.944A.908.908,0,0,1,494.97,241.927Z" transform="translate(-459.305 -230.469)"/><path class="a" d="M488.1,238.007a.88.88,0,0,1-.238-.031.91.91,0,0,1-.643-1.116l.345-1.289a.911.911,0,1,1,1.759.473l-.345,1.289A.911.911,0,0,1,488.1,238.007Z" transform="translate(-460.396 -231.146)"/><path class="a" d="M487.175,277.874a23.107,23.107,0,0,1,0-46.214,23.436,23.436,0,0,1,22.759,18.315.91.91,0,0,1-1.779.389,21.605,21.605,0,0,0-20.98-16.883A21.285,21.285,0,1,0,496.295,274a.911.911,0,1,1,.781,1.646A22.9,22.9,0,0,1,487.175,277.874Z" transform="translate(-464.068 -231.66)"/><path class="a" d="M484.133,251.454a.91.91,0,0,1-.911-.911v-6.917a.911.911,0,1,1,1.822,0v6.917A.911.911,0,0,1,484.133,251.454Z" transform="translate(-461.026 -229.905)"/><path class="a" d="M481.788,252.636h-4.167a.911.911,0,0,1,0-1.822h4.167a.911.911,0,1,1,0,1.822Z" transform="translate(-462.06 -228.618)"/><path class="a" d="M501.908,257.747a5.646,5.646,0,1,1,5.646-5.646A5.651,5.651,0,0,1,501.908,257.747Zm0-9.47a3.824,3.824,0,1,0,3.824,3.824A3.829,3.829,0,0,0,501.908,248.277Z" transform="translate(-458.955 -229.311)"/><path class="a" d="M506.528,271.927a.911.911,0,0,1-.911-.911v-8.455a.911.911,0,1,1,1.822,0v8.455A.91.91,0,0,1,506.528,271.927Z" transform="translate(-457.469 -226.897)"/><path class="a" d="M495.99,271.927a.91.91,0,0,1-.911-.911v-8.455a.911.911,0,1,1,1.822,0v8.455A.911.911,0,0,1,495.99,271.927Z" transform="translate(-459.143 -226.897)"/><path class="a" d="M512.969,273.057a.911.911,0,0,1-.911-.912v-8.379a5.094,5.094,0,0,0-4.855-5.081,9.523,9.523,0,0,1-9.064,0,5.094,5.094,0,0,0-4.855,5.081v8.379a.911.911,0,1,1-1.822,0v-8.379a6.916,6.916,0,0,1,6.908-6.908.91.91,0,0,1,.461.125,7.681,7.681,0,0,0,7.68,0,.91.91,0,0,1,.461-.125,6.916,6.916,0,0,1,6.909,6.908v8.379A.911.911,0,0,1,512.969,273.057Z" transform="translate(-459.717 -227.658)"/></g></svg>