<svg xmlns="http://www.w3.org/2000/svg" width="57.33" height="46.411" viewBox="0 0 57.33 46.411"><defs><style>.a{fill:#bb914a;}</style></defs><g transform="translate(0 0)"><path class="a" d="M189.334,52.51H140.962a4.484,4.484,0,0,1-4.479-4.479V46.859a.785.785,0,0,1,.786-.786h55.758a.785.785,0,0,1,.786.786v1.172A4.484,4.484,0,0,1,189.334,52.51Zm-51.279-4.865v.386a2.91,2.91,0,0,0,2.907,2.907h48.372a2.91,2.91,0,0,0,2.907-2.907v-.386Z" transform="translate(-136.483 -6.099)"/><path class="a" d="M191.818,47.645H138.477a.785.785,0,0,1-.786-.786V7.671A1.574,1.574,0,0,1,139.263,6.1h51.769A1.575,1.575,0,0,1,192.6,7.671V46.859A.786.786,0,0,1,191.818,47.645Zm-52.555-1.572h51.769V7.671H139.263Z" transform="translate(-136.483 -6.099)"/><path class="a" d="M187.789,44.332H142.507a1.574,1.574,0,0,1-1.572-1.572V10.984a1.574,1.574,0,0,1,1.572-1.572h45.282a1.575,1.575,0,0,1,1.572,1.572V42.76A1.575,1.575,0,0,1,187.789,44.332ZM142.507,10.984V42.76h45.282V10.984Z" transform="translate(-136.483 -6.099)"/><path class="a" d="M156.629,22.286a3.9,3.9,0,1,0-3.9,3.905A3.909,3.909,0,0,0,156.629,22.286Zm-3.9,2.4a2.4,2.4,0,1,1,2.4-2.4A2.4,2.4,0,0,1,152.724,24.682Z" transform="translate(-136.483 -6.099)"/><path class="a" d="M158.812,27.326a.893.893,0,0,0-.1-.032l-2.759-.645a.761.761,0,0,0-.171-.02.751.751,0,0,0-.627.335l-2.182,3.263h-.5l-2.181-3.263a.753.753,0,0,0-.8-.315l-2.759.645a.817.817,0,0,0-.1.032,2.388,2.388,0,0,0-1.517,2.213v8.776a.755.755,0,0,0,.755.754h13.7a.755.755,0,0,0,.754-.754V29.539A2.386,2.386,0,0,0,158.812,27.326Zm-6.843,9.934-.3.3h-4.742l-.3-.3V29.539a.879.879,0,0,1,.542-.8l1.957-.458.318.125,2.474,3.7.05.166Zm6.851,0-.3.3h-4.743l-.3-.3V32.277l.05-.167L156,28.41l.318-.125,2.023.482a.87.87,0,0,1,.476.772Z" transform="translate(-136.483 -6.099)"/><path class="a" d="M182.061,14.972H168.28a3.553,3.553,0,0,0-3.549,3.549V30.472a.755.755,0,0,0,.5.708.726.726,0,0,0,.257.046.752.752,0,0,0,.578-.27l3.323-3.971a3.49,3.49,0,0,1,2.683-1.253h9.992a3.553,3.553,0,0,0,3.549-3.549V18.521A3.553,3.553,0,0,0,182.061,14.972Zm2.041,7.211a2.043,2.043,0,0,1-2.041,2.04h-9.992a5,5,0,0,0-3.84,1.794l-1.46,1.744-.53-.192V18.521a2.043,2.043,0,0,1,2.041-2.04h13.781a2.043,2.043,0,0,1,2.041,2.04Z" transform="translate(-136.483 -6.099)"/><path class="a" d="M172.144,20.5a1.209,1.209,0,1,1-1.209-1.209A1.209,1.209,0,0,1,172.144,20.5Z" transform="translate(-136.483 -6.099)"/><path class="a" d="M176.379,20.5a1.209,1.209,0,1,1-1.209-1.209A1.209,1.209,0,0,1,176.379,20.5Z" transform="translate(-136.483 -6.099)"/><path class="a" d="M180.615,20.5a1.209,1.209,0,1,1-1.209-1.209A1.209,1.209,0,0,1,180.615,20.5Z" transform="translate(-136.483 -6.099)"/></g></svg>