<svg id="icn-socialTrading-community" xmlns="http://www.w3.org/2000/svg" width="150" height="150" viewBox="0 0 50 50">
  <g id="Rectangle_32902" data-name="Rectangle 32902" fill="#fff" stroke="#707070" stroke-width="1" opacity="0">
    <rect width="150" height="150" stroke="none"/>
    <rect x="0.5" y="0.5" width="49" height="49" fill="none"/>
  </g>
  <g id="Layer_2" data-name="Layer 2" transform="translate(4.167 2.061)">
    <g id="Group_30743" data-name="Group 30743">
      <path id="Path_52642" data-name="Path 52642" d="M500.332,101.377a19.286,19.286,0,0,1,11.02-5.606,2.943,2.943,0,1,0-.115-1.539,20.819,20.819,0,0,0-12.008,6.071l-.174.179,1.1,1.073Zm12.379-6.588a1.4,1.4,0,1,1,1.4,1.4A1.4,1.4,0,0,1,512.71,94.789Z" transform="translate(-493.344 -91.848)" fill="#03105f"/>
      <path id="Path_52643" data-name="Path 52643" d="M465.629,170.355l.07.24,1.477-.434-.07-.24a19.269,19.269,0,0,1,.61-12.6,2.908,2.908,0,0,0,.554.053,2.955,2.955,0,0,0,2.544-1.462,2.941,2.941,0,0,0-2.54-4.42,2.932,2.932,0,0,0-1.938,5.138,20.806,20.806,0,0,0-.707,13.727Zm1.432-16.629a1.4,1.4,0,0,1,1.917-.506,1.4,1.4,0,0,1,.507,1.916,1.44,1.44,0,0,1-1.917.507A1.4,1.4,0,0,1,467.061,153.726Z" transform="translate(-464.789 -141.55)" fill="#03105f"/>
      <path id="Path_52644" data-name="Path 52644" d="M472.585,275.98a2.926,2.926,0,1,0-2.216,1.027,2.9,2.9,0,0,0,.943-.157,20.906,20.906,0,0,0,10.727,7.306l.241.069.423-1.48-.24-.069A19.363,19.363,0,0,1,472.585,275.98Zm-3.569-2.286a1.4,1.4,0,0,1,1.349-1.03,1.391,1.391,0,1,1-1.217,2.095h0A1.387,1.387,0,0,1,469.016,273.694Z" transform="translate(-466.985 -241.245)" fill="#03105f"/>
      <path id="Path_52645" data-name="Path 52645" d="M588.326,309.989a19.311,19.311,0,0,1-10.87,5.453,2.933,2.933,0,0,0-5.7.95,2.941,2.941,0,0,0,2.913,2.971h.028a2.941,2.941,0,0,0,2.874-2.382,20.847,20.847,0,0,0,11.846-5.905l.176-.177-1.091-1.086ZM576.1,316.436a1.406,1.406,0,0,1-1.4,1.387h-.015a1.4,1.4,0,0,1-1.386-1.416,1.414,1.414,0,0,1,1.415-1.387,1.4,1.4,0,0,1,1.388,1.416Z" transform="translate(-553.928 -273.485)" fill="#03105f"/>
      <path id="Path_52646" data-name="Path 52646" d="M626.86,116.793a2.866,2.866,0,0,0-.628,1.128,2.942,2.942,0,1,0,1.92-1.988,20.819,20.819,0,0,0-11.53-7.649l-.243-.061-.373,1.493.242.061A19.274,19.274,0,0,1,626.86,116.793Zm.852,1.552a1.4,1.4,0,0,1,2.573-.295h0a1.385,1.385,0,0,1-1.608,2.012,1.375,1.375,0,0,1-.965-1.717Z" transform="translate(-590.804 -105.494)" fill="#03105f"/>
      <path id="Path_52647" data-name="Path 52647" d="M679.739,210.074a20.6,20.6,0,0,0,1.628-8.055,20.829,20.829,0,0,0-.67-5.251l-.063-.242-1.489.388.063.242a19.3,19.3,0,0,1,.62,4.863,19.073,19.073,0,0,1-1.463,7.353,2.9,2.9,0,0,0-.583-.06,2.957,2.957,0,0,0-2.529,1.436,2.942,2.942,0,0,0,2.525,4.446,2.957,2.957,0,0,0,2.529-1.436,2.922,2.922,0,0,0,.325-2.228A2.89,2.89,0,0,0,679.739,210.074Zm-.755,2.9h0a1.446,1.446,0,0,1-1.921.486,1.4,1.4,0,0,1-.487-1.921,1.4,1.4,0,0,1,1.921-.487,1.4,1.4,0,0,1,.486,1.922Z" transform="translate(-639.83 -179.079)" fill="#03105f"/>
      <path id="Path_52648" data-name="Path 52648" d="M541.456,178.358a4.852,4.852,0,0,0,6.631,0,4.331,4.331,0,1,0-.973-7.806,4.815,4.815,0,0,0-4.686,0,4.32,4.32,0,1,0-.972,7.8Zm-1.545-3.552a4.831,4.831,0,0,0,.53,2.2q-.135.013-.27.013a2.788,2.788,0,1,1,0-5.575,2.712,2.712,0,0,1,.943.169A4.817,4.817,0,0,0,539.911,174.806Zm1.539,0a3.323,3.323,0,1,1,3.323,3.323A3.326,3.326,0,0,1,541.45,174.806Zm6.98-3.2a2.713,2.713,0,0,1,.94-.168,2.788,2.788,0,0,1,0,5.575c-.089,0-.178,0-.266-.013a4.834,4.834,0,0,0-.674-5.394Z" transform="translate(-524.002 -156.892)" fill="#03105f"/>
      <path id="Path_52649" data-name="Path 52649" d="M535.2,225.944h0c-.1-1.558-.226-2.921-.386-4.049l-.009-.063a4.592,4.592,0,0,0-.609-1.825l-.033-.059a3.687,3.687,0,0,0-1.372-1.345,4.193,4.193,0,0,0-.6-.273l-3.1-1.109-1.207,2.3-2.909-1.04-2.943,5.46h-.641l-2.933-5.46-2.917,1.043-1.209-2.3-3.108,1.112a4.2,4.2,0,0,0-.6.273,3.649,3.649,0,0,0-1.345,1.308l-.064.11a4.564,4.564,0,0,0-.6,1.793l-.012.087c-.16,1.143-.29,2.5-.385,4.04l-.05.817h3.522c-.042.536-.073,1.073-.1,1.633l-.032.8h20.308l-.05-.817c-.032-.514-.071-1.045-.118-1.616h3.544Zm-5.363-2.158c0,.018.008.073.02.162.15,1.061.276,2.307.376,3.707H513.173a25.725,25.725,0,0,1,.386-3.463l.018-.146v-.026a3.414,3.414,0,0,1,.509-1.685,2.676,2.676,0,0,1,1.42-1.167l2.219-.794,2.743,5.1h2.48l2.75-5.1,2.212.791a3.109,3.109,0,0,1,.441.2,2.612,2.612,0,0,1,.948.916l.03.055A3.656,3.656,0,0,1,529.833,223.785Zm1.828-4.01a2.635,2.635,0,0,1,.37.168,2.182,2.182,0,0,1,.782.752l.03.053a3.1,3.1,0,0,1,.425,1.225c0,.016.007.06.017.136.126.891.233,1.937.319,3.113h-2.047c-.06-.57-.12-1.059-.18-1.487l-.012-.085a5.177,5.177,0,0,0-.692-2.063l-.032-.056a4.1,4.1,0,0,0-1.349-1.393l.534-1.017Zm-18.073-.655.539,1.026a4.1,4.1,0,0,0-1.375,1.425,4.955,4.955,0,0,0-.711,2.368c-.029.149-.109.578-.2,1.283h-2.032c.086-1.175.193-2.218.317-3.1.012-.082.018-.131.019-.143a3.145,3.145,0,0,1,.44-1.254,2.132,2.132,0,0,1,.79-.774,2.679,2.679,0,0,1,.37-.168Z" transform="translate(-500.94 -196.325)" fill="#03105f"/>
    </g>
  </g>
</svg>
