<svg id="icn-socialTrading-learn" xmlns="http://www.w3.org/2000/svg" width="150" height="150" viewBox="0 0 50 50">
  <g id="Rectangle_32901" data-name="Rectangle 32901" fill="#fff" stroke="#707070" stroke-width="1" opacity="0">
    <rect width="150" height="150" stroke="none"/>
    <rect x="0.5" y="0.5" width="49" height="49" fill="none"/>
  </g>
  <g id="Layer_1" data-name="Layer 1" transform="translate(0 4.167)">
    <g id="Group_30742" data-name="Group 30742" transform="translate(0 0)">
      <path id="Path_52632" data-name="Path 52632" d="M168.912,242.944a1.924,1.924,0,0,1-1.922,1.922H144.274v1.349h1.573l-1.369,3.195h-2.8v1.349h16.875v-1.349H155.1l-1.369-3.195H166.99a3.274,3.274,0,0,0,3.27-3.27V231.262h-1.349Zm-15.276,6.465h-7.69l1.369-3.195h4.952Z" transform="translate(-129.97 -209.195)" fill="#03105f"/>
      <path id="Path_52633" data-name="Path 52633" d="M75.907,167.4H66.82a1.924,1.924,0,0,1-1.922-1.922V143.411a1.924,1.924,0,0,1,1.922-1.922H91.483v-1.349H66.82a3.274,3.274,0,0,0-3.27,3.27v22.067a3.274,3.274,0,0,0,3.27,3.27h9.086Z" transform="translate(-63.55 -131.729)" fill="#03105f"/>
      <path id="Path_52634" data-name="Path 52634" d="M143.127,205.539v-2.6h1.635v-8.7h-1.635v-3.412h-1.349v3.412h-1.635v8.7h1.635v2.6Zm-1.635-9.951h1.921V201.6h-1.921Z" transform="translate(-128.666 -174.82)" fill="#03105f"/>
      <path id="Path_52635" data-name="Path 52635" d="M181.307,224.9v-2.6h1.635v-6.253h-1.635v-3.412h-1.349v3.412h-1.635v6.253h1.635v2.6Zm-1.635-7.5h1.921v3.555h-1.921Z" transform="translate(-161.125 -193.367)" fill="#03105f"/>
      <path id="Path_52636" data-name="Path 52636" d="M256.321,178.267h1.349v-2.595H259.3V166.15h-1.635v-2.6h-1.349v2.6h-1.635v9.522h1.635Zm-.286-10.769h1.921v6.825h-1.921Z" transform="translate(-226.044 -151.634)" fill="#03105f"/>
      <path id="Path_52637" data-name="Path 52637" d="M219.488,200.084v-3.412h1.635v-7.887h-1.635v-3.412H218.14v3.412h-1.635v7.887h1.635v3.412Zm-1.635-9.951h1.921v5.19h-1.921Z" transform="translate(-193.584 -170.182)" fill="#03105f"/>
      <path id="Path_52638" data-name="Path 52638" d="M104.946,227.356v-3.412h1.635v-6.253h-1.635v-5.047H103.6v5.047h-1.635v6.253H103.6v3.412Zm-1.635-8.317h1.921V222.6h-1.921Z" transform="translate(-96.207 -193.367)" fill="#03105f"/>
      <rect id="Rectangle_32895" data-name="Rectangle 32895" width="5.192" height="1.349" transform="translate(37.02 15.551)" fill="#03105f"/>
      <path id="Path_52639" data-name="Path 52639" d="M316.724,201.569a.624.624,0,0,1-.624-.624h-1.349a1.972,1.972,0,0,0,3.945,0h-1.349A.624.624,0,0,1,316.724,201.569Z" transform="translate(-277.109 -183.421)" fill="#03105f"/>
      <path id="Path_52640" data-name="Path 52640" d="M294.632,109.823a5.674,5.674,0,0,0-5.867,5.867c0,3.214,3.387,5.641,3.531,5.743l.779-1.1c-.03-.021-2.96-2.13-2.96-4.642a4.518,4.518,0,1,1,9.036,0c0,2.512-2.931,4.621-2.96,4.642l.778,1.1c.144-.1,3.531-2.529,3.531-5.743A5.674,5.674,0,0,0,294.632,109.823Z" transform="translate(-255.016 -105.954)" fill="#03105f"/>
      <path id="Path_52641" data-name="Path 52641" d="M303.082,133.273l-.477-.477a3.894,3.894,0,0,0,0,4.848l.961-.946a2.609,2.609,0,0,1,0-2.957Z" transform="translate(-266.063 -125.485)" fill="#03105f"/>
      <rect id="Rectangle_32896" data-name="Rectangle 32896" width="1.349" height="2.596" transform="translate(38.941)" fill="#03105f"/>
      <rect id="Rectangle_32897" data-name="Rectangle 32897" width="2.596" height="1.349" transform="translate(47.404 9.061)" fill="#03105f"/>
      <rect id="Rectangle_32898" data-name="Rectangle 32898" width="2.596" height="1.349" transform="translate(29.88 8.412)" fill="#03105f"/>
      <rect id="Rectangle_32899" data-name="Rectangle 32899" width="2.754" height="1.349" transform="translate(44.98 4.066) rotate(-45)" fill="#03105f"/>
      <rect id="Rectangle_32900" data-name="Rectangle 32900" width="1.349" height="2.754" transform="translate(32 3.073) rotate(-45)" fill="#03105f"/>
    </g>
  </g>
</svg>
