<svg id="icn-socialTrading-diversification" xmlns="http://www.w3.org/2000/svg" width="150" height="150" viewBox="0 0 50 50">
  <g id="Rectangle_32904" data-name="Rectangle 32904" fill="#fff" stroke="#707070" stroke-width="1" opacity="0">
    <rect width="150" height="150" stroke="none"/>
    <rect x="0.5" y="0.5" width="49" height="49" fill="none"/>
  </g>
  <g id="Layer_4" data-name="Layer 4" transform="translate(4.167 4.167)">
    <g id="Group_30745" data-name="Group 30745" transform="translate(0)">
      <path id="Path_52652" data-name="Path 52652" d="M104.513,480.676a.9.9,0,0,0,.9-.9,10.644,10.644,0,0,1,2.148-6.424.9.9,0,0,0-.084-1.179l-5.924-5.924a.9.9,0,0,0-1.327.055,20.876,20.876,0,0,0-4.937,13.472.9.9,0,0,0,.9.9Zm-3.522-12.441,4.676,4.675a12.406,12.406,0,0,0-2.024,5.96H97.119A19.075,19.075,0,0,1,100.991,468.235Z" transform="translate(-95.292 -458.906)" fill="#03105f"/>
      <path id="Path_52653" data-name="Path 52653" d="M148.271,426.8a20.876,20.876,0,0,0-13.472,4.937.9.9,0,0,0-.055,1.327l5.924,5.924a.9.9,0,0,0,1.18.084,10.643,10.643,0,0,1,6.424-2.148.9.9,0,0,0,.9-.9V427.7A.9.9,0,0,0,148.271,426.8Zm-.9,8.351a12.4,12.4,0,0,0-5.96,2.024l-4.676-4.676a19.076,19.076,0,0,1,10.636-3.872Z" transform="translate(-127.404 -426.796)" fill="#03105f"/>
      <path id="Path_52654" data-name="Path 52654" d="M237.737,435.4a20.89,20.89,0,0,0-12.4-7.03.9.9,0,0,0-1.052.89v8.526a.9.9,0,0,0,.645.865,10.739,10.739,0,0,1,0,20.584.9.9,0,0,0-.645.865v8.526a.9.9,0,0,0,.9.9.883.883,0,0,0,.149-.012,20.863,20.863,0,0,0,12.4-34.116Zm-1.373,25.913a19.1,19.1,0,0,1-10.27,6.215v-6.774a12.544,12.544,0,0,0,0-23.621v-6.774a19.058,19.058,0,0,1,10.27,30.955Z" transform="translate(-200.997 -428.072)" fill="#03105f"/>
      <path id="Path_52655" data-name="Path 52655" d="M117.436,564.11a10.8,10.8,0,0,1-10.292-7.673.9.9,0,0,0-.865-.645H97.753a.9.9,0,0,0-.891,1.052,20.869,20.869,0,0,0,20.573,17.39.9.9,0,0,0,.9-.9v-8.318A.9.9,0,0,0,117.436,564.11Zm-.9,8.3A19.066,19.066,0,0,1,98.851,557.6h6.774a12.64,12.64,0,0,0,10.908,8.285Z" transform="translate(-96.569 -532.5)" fill="#03105f"/>
    </g>
  </g>
</svg>
