<svg id="icn-socialTrading-transparent" xmlns="http://www.w3.org/2000/svg" width="150" height="150" viewBox="0 0 50 50">
  <g id="Rectangle_32922" data-name="Rectangle 32922" fill="#fff" stroke="#707070" stroke-width="1" opacity="0">
    <rect width="150" height="150" stroke="none"/>
    <rect x="0.5" y="0.5" width="49" height="49" fill="none"/>
  </g>
  <g id="Group_30816" data-name="Group 30816" transform="translate(5.317 5.317)">
    <g id="Group_30816-2" data-name="Group 30816" transform="translate(0)">
      <path id="Path_52794" data-name="Path 52794" d="M570.786,450.249A13.6,13.6,0,0,0,557.2,463.83a13.448,13.448,0,0,0,2.734,8.163l-2.7,2.7-.028.029a3.447,3.447,0,0,0-.664-.065,3.39,3.39,0,0,0-2.412,1L546,483.791a3.411,3.411,0,1,0,4.825,4.824l8.136-8.136a3.388,3.388,0,0,0,1-2.412,3.449,3.449,0,0,0-.065-.664l.029-.028,2.7-2.7a13.449,13.449,0,0,0,8.163,2.734,13.581,13.581,0,0,0,0-27.162ZM546.4,486.2a2,2,0,0,1,.589-1.423l7.3-7.3,2.846,2.846-7.3,7.3A2.012,2.012,0,0,1,546.4,486.2Zm15.146-12.428-2.259,2.259a3.39,3.39,0,0,0-.706-.705l2.259-2.259C561.067,473.312,561.3,473.549,561.547,473.775Zm-2.986,4.293a2.013,2.013,0,0,1-.443,1.258l-2.827-2.827a2.011,2.011,0,0,1,3.27,1.569Zm12.225-2.056a12.182,12.182,0,1,1,12.182-12.182A12.2,12.2,0,0,1,570.786,476.012Z" transform="translate(-545.001 -450.249)" fill="#03105f"/>
    </g>
    <g id="Group_30817" data-name="Group 30817" transform="translate(14.915 2.712)">
      <path id="Path_52795" data-name="Path 52795" d="M900.663,512.939a10.869,10.869,0,1,0,10.869,10.869A10.881,10.881,0,0,0,900.663,512.939Zm0,20.339a9.47,9.47,0,1,1,9.47-9.47A9.481,9.481,0,0,1,900.663,533.278Z" transform="translate(-889.794 -512.939)" fill="#03105f"/>
    </g>
    <g id="Group_30818" data-name="Group 30818" transform="translate(29.151 6.629)">
      <path id="Path_52796" data-name="Path 52796" d="M1219.959,603.6a.7.7,0,1,0-.764,1.172,6.76,6.76,0,0,1,1.529,9.967.7.7,0,0,0,1.079.891,8.159,8.159,0,0,0-1.844-12.03Z" transform="translate(-1218.877 -603.482)" fill="#03105f"/>
    </g>
    <g id="Group_30819" data-name="Group 30819" transform="translate(25.085 5.424)">
      <path id="Path_52797" data-name="Path 52797" d="M1127.062,575.762a8.233,8.233,0,0,0-1.482-.134.7.7,0,0,0,0,1.4,6.823,6.823,0,0,1,1.23.112.712.712,0,0,0,.127.012.7.7,0,0,0,.126-1.388Z" transform="translate(-1124.88 -575.628)" fill="#03105f"/>
    </g>
  </g>
</svg>
